<?xml version="1.0" encoding="UTF-8"?>
<svg version="1.1" xmlns="http://www.w3.org/2000/svg" width="512" height="512">
<path d="M0 0 C1.27423828 1.02867188 1.27423828 1.02867188 2.57421875 2.078125 C22.26376778 18.76942245 36.77605012 45.20218134 39 71 C39.07221265 75.66803234 39.05827036 80.33189671 39 85 C39.76441406 85.02578125 40.52882813 85.0515625 41.31640625 85.078125 C54.64831964 85.78402655 66.94801187 89.32454852 79 95 C79.88945312 95.41765625 80.77890625 95.8353125 81.6953125 96.265625 C105.90491129 108.54687919 124.01114673 130.69146671 132.75878906 156.21386719 C141.75224535 185.33872637 138.07059194 214.61148582 124.30859375 241.27734375 C120.29617313 248.51087234 115.48536603 254.82312275 110 261 C109.33613281 261.75925781 108.67226563 262.51851563 107.98828125 263.30078125 C93.15509891 279.20760345 73.60700571 287.52665821 53 293 C52.97421875 294.08539063 52.9484375 295.17078125 52.921875 296.2890625 C52.86556262 297.73441349 52.808216 299.17972444 52.75 300.625 C52.73582031 301.33785156 52.72164063 302.05070312 52.70703125 302.78515625 C52.41592461 309.13128098 50.21802314 312.89572164 45.5625 317.3125 C40.89874004 320.38375656 35.98109735 320.14211322 30.54760742 320.11352539 C29.44923553 320.11374443 29.44923553 320.11374443 28.32867432 320.1139679 C25.92090845 320.11327413 23.51322102 320.10550692 21.10546875 320.09765625 C19.43109682 320.09579017 17.75672435 320.09436716 16.08235168 320.09336853 C11.68472779 320.08955835 7.28713716 320.0797409 2.88952637 320.06866455 C-1.60163931 320.05841816 -6.09281037 320.053864 -10.58398438 320.04882812 C-19.38933814 320.03811726 -28.19466493 320.02105888 -37 320 C-36.96519531 321.08539063 -36.93039062 322.17078125 -36.89453125 323.2890625 C-36.86637612 324.73435942 -36.83907781 326.17967321 -36.8125 327.625 C-36.78736328 328.33785156 -36.76222656 329.05070312 -36.73632812 329.78515625 C-36.67007936 334.59923324 -37.31903794 337.83794702 -40 342 C-43.65736688 344.43824459 -45.80528943 344.72298284 -50.1328125 344.62890625 C-55.5052763 343.45047754 -59.30214392 339.79592583 -63.42480469 336.31298828 C-66.02881435 334.1424421 -68.73898862 332.11330388 -71.4375 330.0625 C-72.53719676 329.21580196 -73.63615363 328.36814208 -74.734375 327.51953125 C-77.88096152 325.09053816 -81.0342785 322.67037479 -84.1875 320.25 C-90.44948147 315.43879877 -96.68083701 310.58834737 -102.90893555 305.73339844 C-104.00782104 304.8772998 -104.00782104 304.8772998 -105.12890625 304.00390625 C-105.77931885 303.49674072 -106.42973145 302.9895752 -107.09985352 302.46704102 C-109.0528501 300.95919617 -111.0227569 299.47586192 -113 298 C-116.3788353 299.54012028 -119.16880442 301.50969223 -122.125 303.75 C-122.63651611 304.13704102 -123.14803223 304.52408203 -123.67504883 304.92285156 C-129.15267485 309.08388732 -134.57180965 313.32108567 -139.99682617 317.55029297 C-146.68564392 322.76321387 -153.39112436 327.95276717 -160.15625 333.06640625 C-162.5305285 334.86285813 -164.86220384 336.69221707 -167.15625 338.58984375 C-172.29549812 342.69691142 -176.0865552 345.18066537 -182.83203125 344.6015625 C-186.28561778 343.64327002 -187.94367048 341.85232804 -190 339 C-191.25433458 335.23699626 -191.10695422 331.72789091 -191.0625 327.8125 C-191.05798828 327.06291016 -191.05347656 326.31332031 -191.04882812 325.54101562 C-191.03706354 323.69397617 -191.01912865 321.84697787 -191 320 C-192.38609215 320.00666183 -192.38609215 320.00666183 -193.80018616 320.01345825 C-202.52466806 320.05359515 -211.24911877 320.08401499 -219.97367191 320.10362434 C-224.45864373 320.11404472 -228.94353902 320.12817196 -233.4284668 320.15087891 C-237.75972174 320.17266964 -242.09090324 320.18458176 -246.42220879 320.18975449 C-248.07154941 320.19343907 -249.72088618 320.2006341 -251.37019539 320.21146011 C-253.68706965 320.22605798 -256.00364351 320.2279745 -258.32055664 320.22705078 C-260.29579063 320.23371262 -260.29579063 320.23371262 -262.31092834 320.24050903 C-266.94911902 319.93812218 -271.33219619 319.40866298 -274.9609375 316.34375 C-275.42757812 315.7353125 -275.89421875 315.126875 -276.375 314.5 C-276.85710937 313.8915625 -277.33921875 313.283125 -277.8359375 312.65625 C-280.41335529 308.98905153 -280.11441289 305.70373623 -280.0625 301.375 C-280.05798828 300.66859375 -280.05347656 299.9621875 -280.04882812 299.234375 C-280.03703875 297.48954725 -280.01910324 295.744763 -280 294 C-281.1859375 294.04640625 -282.371875 294.0928125 -283.59375 294.140625 C-304.66356728 294.71890047 -323.42440373 289.4995322 -339.546875 275.33203125 C-353.00409772 262.53909819 -363.89055817 245.45034439 -365.17700195 226.37548828 C-365.71030068 201.96272964 -361.7170452 181.29373083 -344.79296875 162.83984375 C-340.80179113 158.78168134 -336.67125804 155.24827513 -332 152 C-330.83404297 151.18789063 -330.83404297 151.18789063 -329.64453125 150.359375 C-319.41743796 143.75263937 -308.00400462 140.47301888 -296 139 C-296.33 138.01 -296.66 137.02 -297 136 C-298.49137995 115.49352564 -292.90625492 95.42308298 -279.8671875 79.375 C-265.33623128 62.76819289 -248.8857882 52.99135171 -226.7265625 51.19140625 C-209.3116322 50.21591098 -194.54182699 55.54626665 -179 63 C-178.79246094 62.1028125 -178.58492187 61.205625 -178.37109375 60.28125 C-171.24907336 31.43557745 -154.48845258 6.79857421 -129 -9 C-88.02506929 -32.70467338 -36.9378822 -30.64945877 0 0 Z M-142.81640625 19.4765625 C-156.87770274 35.72628975 -164.75570793 53.89792296 -167.60546875 75.2578125 C-167.93801578 77.56917899 -168.38141995 79.75159599 -169 82 C-173.50918843 82.78043646 -175.82371383 82.77797601 -179.7109375 80.20703125 C-181.71270982 78.60507673 -183.71261046 77.00078146 -185.7109375 75.39453125 C-197.70800904 66.19871415 -214.19635912 63.01108405 -228.96875 64.36328125 C-243.30834934 66.40856278 -254.86408893 72.58106174 -265 83 C-265.70769531 83.68707031 -266.41539062 84.37414062 -267.14453125 85.08203125 C-279.43415462 97.7476278 -284.23019981 114.94819173 -284.1015625 132.20703125 C-283.99235399 135.21026522 -283.53708271 138.04604509 -283 141 C-282.77010789 143.75870532 -282.81410641 146.21159613 -283 149 C-286.51265628 151.34177085 -289.36631304 151.50062162 -293.4375 151.875 C-311.78505963 153.91751874 -327.05697278 162.22133699 -339.03125 176.40625 C-351.27166489 192.9415473 -353.85747229 210.50343921 -351.60546875 230.50390625 C-348.24730734 246.428091 -337.93006987 260.393877 -325 269.9375 C-319.91965077 273.23611538 -314.64520294 275.81708158 -309 278 C-308.17242187 278.32097656 -307.34484375 278.64195312 -306.4921875 278.97265625 C-297.84517236 281.81532942 -288.98566405 281.26690091 -280 281 C-279.97421875 279.98679687 -279.9484375 278.97359375 -279.921875 277.9296875 C-279.86555819 276.57808403 -279.80821167 275.22652319 -279.75 273.875 C-279.73582031 273.20984375 -279.72164063 272.5446875 -279.70703125 271.859375 C-279.45956229 266.81100817 -278.35091363 263.77799085 -275 260 C-269.9731854 257.38719118 -265.81288137 256.55590418 -260.13696289 256.56762695 C-259.38491577 256.5574353 -258.63286865 256.54724365 -257.85803223 256.53674316 C-255.39616279 256.50678187 -252.93468351 256.49737342 -250.47265625 256.48828125 C-248.7562889 256.471422 -247.0399338 256.45327008 -245.32359314 256.43388367 C-240.82412546 256.38651273 -236.32470748 256.3566201 -231.82507324 256.33044434 C-227.22638132 256.30057346 -222.62786039 256.25406563 -218.02929688 256.20898438 C-209.01962094 256.12309824 -200.00990967 256.05568784 -191 256 C-190.96261719 254.83082031 -190.92523438 253.66164063 -190.88671875 252.45703125 C-190.8210372 250.90882325 -190.75459061 249.36064758 -190.6875 247.8125 C-190.65366211 246.65911133 -190.65366211 246.65911133 -190.61914062 245.48242188 C-190.40210084 240.88512459 -189.93528528 237.7482442 -187 234 C-183.37087566 231.71883613 -180.28203077 231.86807093 -176.09790039 232.45117188 C-172.49447005 233.39385911 -170.08315508 235.53364464 -167.3125 237.9375 C-166.08530612 238.95133323 -164.85742695 239.96433746 -163.62890625 240.9765625 C-163.01934082 241.48735352 -162.40977539 241.99814453 -161.78173828 242.52441406 C-159.15928238 244.69625888 -156.45972492 246.75023147 -153.75 248.8125 C-149.26307945 252.24924575 -144.79449325 255.70897835 -140.33569336 259.18212891 C-138.7859988 260.38825681 -137.23474177 261.59237999 -135.68188477 262.79443359 C-132.13424746 265.542726 -128.60683131 268.30658 -125.13671875 271.15234375 C-124.54955078 271.62607422 -123.96238281 272.09980469 -123.35742188 272.58789062 C-121.79654759 273.84936914 -120.24741368 275.12533591 -118.69921875 276.40234375 C-116.17185589 278.254679 -116.17185589 278.254679 -113.5793457 277.77539062 C-110.83238808 276.9496133 -109.25772406 275.97775688 -107.03125 274.19140625 C-106.30188232 273.61422852 -105.57251465 273.03705078 -104.82104492 272.44238281 C-104.0551001 271.82202148 -103.28915527 271.20166016 -102.5 270.5625 C-100.88175107 269.27704074 -99.2632601 267.99188612 -97.64453125 266.70703125 C-96.45657959 265.75691162 -96.45657959 265.75691162 -95.24462891 264.78759766 C-92.2531351 262.40520505 -89.22555199 260.07252075 -86.1875 257.75 C-85.16011719 256.96109375 -84.13273437 256.1721875 -83.07421875 255.359375 C-82.05972656 254.58078125 -81.04523438 253.8021875 -80 253 C-78.37777513 251.75281889 -76.75593063 250.50515033 -75.13476562 249.2565918 C-74.05310152 248.42515136 -72.96978914 247.59585046 -71.88476562 246.76879883 C-69.07255161 244.62095763 -66.30222873 242.43770588 -63.57421875 240.18359375 C-63.00703125 239.72404297 -62.43984375 239.26449219 -61.85546875 238.79101562 C-60.28418485 237.51595738 -58.7256275 236.22526161 -57.16796875 234.93359375 C-53.15389124 232.4835711 -50.67831119 232.1815892 -46 232 C-42.90134519 233.09026743 -40.81491819 233.8653396 -38.875 236.56640625 C-37.55566755 240.23579962 -37.52914798 243.87703195 -37.375 247.75 C-37.33632813 248.54277344 -37.29765625 249.33554687 -37.2578125 250.15234375 C-37.163892 252.10119416 -37.08087178 254.05056451 -37 256 C-36.05310303 256.00364563 -35.10620605 256.00729126 -34.13061523 256.01104736 C-25.1854884 256.04806773 -16.24070358 256.10591704 -7.2958374 256.18390274 C-2.69769918 256.22332907 1.90024892 256.25554122 6.49853516 256.27099609 C10.94026468 256.28619472 15.38147137 256.32069673 19.82296753 256.36830902 C21.51328982 256.38308987 23.20368678 256.39103912 24.89407349 256.39188385 C41.41775106 256.40843848 41.41775106 256.40843848 48 261 C51.13456086 264.72268206 51.44600371 268.03087354 51.6875 272.8125 C51.75324219 273.97394531 51.81898438 275.13539063 51.88671875 276.33203125 C51.92410156 277.21246094 51.96148437 278.09289062 52 279 C71.28866407 276.42225227 86.51657318 265.28687541 100 252 C100.98613281 251.03320312 100.98613281 251.03320312 101.9921875 250.046875 C117.08603697 234.0487857 124.62651838 211.5555059 124.5 189.875 C124.49355469 188.70283936 124.48710937 187.53067871 124.48046875 186.32299805 C123.94273414 160.46397761 112.45401885 138.49397417 94.0234375 120.60546875 C77.02531053 105.95721204 56.17079382 98.13579279 33.84765625 97.5390625 C31 97 31 97 28.65234375 95.53125 C26.18256977 91.74776645 26.4958076 88.3005003 26.5 83.875 C25.76920093 56.52223472 14.88918607 33.64251221 -4 14 C-23.43389077 -4.26785733 -48.71295855 -12.57726291 -75.015625 -12.2109375 C-100.78320476 -11.41002654 -125.14807308 0.99775533 -142.81640625 19.4765625 Z M-178 247 C-178.01981934 247.56509277 -178.03963867 248.13018555 -178.06005859 248.71240234 C-178.15518236 251.26707997 -178.26491058 253.82092541 -178.375 256.375 C-178.4059375 257.26445312 -178.436875 258.15390625 -178.46875 259.0703125 C-178.50742188 259.92109375 -178.54609375 260.771875 -178.5859375 261.6484375 C-178.63306885 262.82672119 -178.63306885 262.82672119 -178.68115234 264.02880859 C-179 266 -179 266 -181 268 C-183.70379553 268.21230901 -186.30781525 268.30095031 -189.01391602 268.30297852 C-189.84165527 268.31141785 -190.66939453 268.31985718 -191.5222168 268.32855225 C-194.26611887 268.35440353 -197.00991334 268.36648621 -199.75390625 268.37890625 C-201.65438195 268.39507136 -203.55484927 268.41225029 -205.45530701 268.43040466 C-210.46410259 268.47616513 -215.47290915 268.51093466 -220.48181152 268.54260254 C-228.50380922 268.59441478 -236.52568417 268.6594419 -244.54752922 268.73081779 C-247.35781133 268.75373423 -250.16807767 268.76995126 -252.97840881 268.78553772 C-254.69076716 268.79893885 -256.40312385 268.81255316 -258.11547852 268.82641602 C-259.29759163 268.83033607 -259.29759163 268.83033607 -260.50358582 268.83433533 C-264.04671661 268.54296893 -264.04671661 268.54296893 -267 270 C-267.08855161 272.6662603 -267.11524673 275.30647114 -267.09765625 277.97265625 C-267.0962413 278.77029892 -267.09482635 279.56794159 -267.09336853 280.38975525 C-267.08775316 282.94737435 -267.07519812 285.50490718 -267.0625 288.0625 C-267.05748698 289.79231645 -267.05292373 291.52213426 -267.04882812 293.25195312 C-267.03777875 297.50133553 -267.02050386 301.75065312 -267 306 C-263.81886702 307.59056649 -260.37405738 307.18007797 -256.87841797 307.20532227 C-255.61976929 307.22017166 -255.61976929 307.22017166 -254.33569336 307.23532104 C-251.55455371 307.26697792 -248.77339696 307.29171 -245.9921875 307.31640625 C-244.06690012 307.33697216 -242.14161729 307.35796854 -240.21633911 307.37937927 C-235.14304282 307.43463741 -230.06970553 307.48403017 -224.99633789 307.53222656 C-219.82174012 307.58241429 -214.64720206 307.63811458 -209.47265625 307.69335938 C-199.31515323 307.80098672 -189.15759963 307.90191227 -179 308 C-178.505 318.395 -178.505 318.395 -178 329 C-170.54751284 324.24582716 -163.69820694 318.90375042 -156.78759766 313.41259766 C-154.02384362 311.22862049 -151.23272129 309.08097035 -148.4375 306.9375 C-147.91196533 306.53426514 -147.38643066 306.13103027 -146.8449707 305.71557617 C-145.77960541 304.89841017 -144.71409375 304.08143497 -143.6484375 303.26464844 C-141.90998501 301.93094229 -140.17349416 300.5947167 -138.4375 299.2578125 C-137.85170166 298.80672119 -137.26590332 298.35562988 -136.66235352 297.89086914 C-136.09315186 297.45250732 -135.5239502 297.01414551 -134.9375 296.5625 C-131.63898932 294.02236136 -128.33731651 291.48898186 -125 289 C-126.52295388 284.90764541 -129.40695724 282.86763503 -132.8125 280.375 C-133.99625002 279.48718749 -135.17983936 278.5991607 -136.36328125 277.7109375 C-136.96865723 277.26073242 -137.5740332 276.81052734 -138.19775391 276.34667969 C-140.98853537 274.26134366 -143.74326671 272.13001181 -146.5 270 C-147.57920837 269.16898672 -148.65863636 268.33825858 -149.73828125 267.5078125 C-150.27404785 267.09563477 -150.80981445 266.68345703 -151.36181641 266.25878906 C-153.02507718 264.98073056 -154.69007187 263.70496093 -156.35546875 262.4296875 C-157.4662111 261.57821013 -158.57688885 260.72664849 -159.6875 259.875 C-160.49151245 259.25939209 -160.49151245 259.25939209 -161.31176758 258.63134766 C-165.63818814 255.30720459 -169.87235181 251.87821601 -174.07421875 248.3984375 C-175.87305878 246.804138 -175.87305878 246.804138 -178 247 Z M-57.375 251.4375 C-62.42383989 255.73477463 -67.60850717 259.77448318 -72.9375 263.72265625 C-76.67371462 266.50098932 -80.36795476 269.33050724 -84.04541016 272.18603516 C-86.90533911 274.4040977 -89.78548555 276.58370465 -92.7109375 278.71484375 C-93.61501343 279.38302124 -93.61501343 279.38302124 -94.53735352 280.06469727 C-95.69691887 280.92061629 -96.86385432 281.76666352 -98.03881836 282.60131836 C-99.81043474 283.87513264 -99.81043474 283.87513264 -102 286 C-102.44859745 289.84226973 -102.44859745 289.84226973 -100.64575195 291.48876953 C-100.01628662 291.94880371 -99.38682129 292.40883789 -98.73828125 292.8828125 C-97.68846069 293.66579712 -97.68846069 293.66579712 -96.61743164 294.46459961 C-95.8568042 295.01253174 -95.09617676 295.56046387 -94.3125 296.125 C-92.734213 297.29535448 -91.1560893 298.46592921 -89.578125 299.63671875 C-88.79501953 300.21083496 -88.01191406 300.78495117 -87.20507812 301.37646484 C-84.29078417 303.52217508 -81.42570843 305.72401963 -78.5625 307.9375 C-77.54414063 308.71996094 -76.52578125 309.50242187 -75.4765625 310.30859375 C-72.75149618 312.4112283 -70.04255782 314.53383795 -67.3359375 316.66015625 C-66.52568115 317.2951001 -65.7154248 317.93004395 -64.88061523 318.58422852 C-63.28142323 319.83823668 -61.68448641 321.09512743 -60.09008789 322.35522461 C-59.35781982 322.92893799 -58.62555176 323.50265137 -57.87109375 324.09375 C-57.22068115 324.60615234 -56.57026855 325.11855469 -55.90014648 325.64648438 C-53.7406881 327.25855319 -53.7406881 327.25855319 -50 329 C-49.67 322.07 -49.34 315.14 -49 308 C-46.40527832 307.97494385 -43.81055664 307.9498877 -41.13720703 307.92407227 C-32.57962399 307.8407249 -24.02210256 307.75202285 -15.46460152 307.66066074 C-10.27443724 307.60541475 -5.08426734 307.55199207 0.10595703 307.50268555 C5.11155339 307.45506673 10.11707981 307.40272483 15.12259293 307.34705925 C17.03560782 307.32662443 18.94864191 307.30791324 20.86169052 307.29092598 C23.53400381 307.2669069 26.20618421 307.23684898 28.87841797 307.20532227 C29.67539093 307.1995668 30.47236389 307.19381134 31.29348755 307.18788147 C35.2768315 307.21846745 35.2768315 307.21846745 39 306 C39.0246501 300.89136104 39.04283607 295.78275641 39.05493164 290.67407227 C39.05997204 288.93480832 39.0668043 287.19554864 39.07543945 285.45629883 C39.08751792 282.96174063 39.09323108 280.46723827 39.09765625 277.97265625 C39.10281754 277.19036148 39.10797882 276.40806671 39.11329651 275.60206604 C39.11349226 273.73432886 39.06199694 271.86670796 39 270 C36.98663523 267.98663523 32.87767438 268.83557586 30.11547852 268.82641602 C29.28949158 268.819729 28.46350464 268.81304199 27.61248779 268.80615234 C25.81292275 268.79206873 24.0133395 268.78018532 22.21374702 268.77020454 C19.36923234 268.75385063 16.52485288 268.73061603 13.68040466 268.70530701 C5.59095954 268.63437123 -2.49854081 268.57433835 -10.58813477 268.52319336 C-15.53008748 268.49146534 -20.47188554 268.45020543 -25.41371346 268.40299797 C-27.301598 268.38693996 -29.18951821 268.37463606 -31.07745171 268.36609077 C-33.71382288 268.3539857 -36.34982811 268.32985683 -38.98608398 268.30297852 C-39.77213516 268.30238937 -40.55818634 268.30180023 -41.36805725 268.30119324 C-46.77210438 268.22789562 -46.77210438 268.22789562 -49 266 C-49.31884766 264.02880859 -49.31884766 264.02880859 -49.4140625 261.6484375 C-49.47207031 260.37226563 -49.47207031 260.37226563 -49.53125 259.0703125 C-49.5621875 258.18085938 -49.593125 257.29140625 -49.625 256.375 C-49.68300781 255.02921875 -49.68300781 255.02921875 -49.7421875 253.65625 C-49.83659357 251.4377073 -49.92216748 249.21917597 -50 247 C-53.28315661 247 -54.94493506 249.34228653 -57.375 251.4375 Z " fill="#000000" transform="translate(370,32)"/>
<path d="M0 0 C4.07595353 1.37202373 5.86776512 4.11138221 8.375 7.5 C9.26085869 8.68293623 10.14762929 9.86518993 11.03515625 11.046875 C11.51098145 11.68431641 11.98680664 12.32175781 12.47705078 12.97851562 C15.20913968 16.60494975 18.01650334 20.17277465 20.8125 23.75 C27.06507511 31.77930958 33.28994921 39.82847309 39.43310547 47.94189453 C41.01687667 50.0221674 42.61910818 52.08729387 44.22265625 54.15234375 C45.2325033 55.476004 46.2416492 56.80019956 47.25 58.125 C47.71623779 58.71627686 48.18247559 59.30755371 48.6628418 59.91674805 C51.65598403 63.8975989 52.79826332 67.02778424 53 72 C51.81063139 75.43595376 50.77120927 77.38040843 47.93359375 79.66015625 C43.93155939 81.48798286 40.52581733 81.32932261 36.1875 81.1875 C35.39923828 81.17396484 34.61097656 81.16042969 33.79882812 81.14648438 C31.86558831 81.11133456 29.93270318 81.05753361 28 81 C28.00999275 82.01024986 28.00999275 82.01024986 28.02018738 83.04090881 C28.08667619 90.06522843 28.13185703 97.08945829 28.16479492 104.11401367 C28.17985979 106.73384229 28.20031554 109.35364578 28.22631836 111.97338867 C28.26280162 115.74404105 28.27974988 119.51435926 28.29296875 123.28515625 C28.30845261 124.45208511 28.32393646 125.61901398 28.33988953 126.82130432 C28.34129911 133.66797187 28.19384722 139.37543038 23.46484375 144.7421875 C17.9658263 148.82074264 14.57699512 149.18223805 7.828125 149.23828125 C6.91295105 149.246353 5.9977771 149.25442474 5.05487061 149.26274109 C3.1147247 149.27658629 1.17455439 149.28730649 -0.765625 149.29516602 C-3.72443248 149.3123515 -6.68211467 149.35623007 -9.640625 149.40039062 C-11.52603345 149.41052001 -13.41145141 149.41903535 -15.296875 149.42578125 C-16.17833191 149.44328934 -17.05978882 149.46079742 -17.96795654 149.47883606 C-23.49080642 149.45946173 -26.61702412 148.67763549 -31 145 C-35.40947057 140.23300479 -36.12810824 136.85519335 -36.11352539 130.49707031 C-36.11344986 129.39623108 -36.11337433 128.29539185 -36.11329651 127.16119385 C-36.10813522 125.97878113 -36.10297394 124.79636841 -36.09765625 123.578125 C-36.0962413 122.36300232 -36.09482635 121.14787964 -36.09336853 119.89593506 C-36.08776988 116.01393169 -36.0752176 112.13198594 -36.0625 108.25 C-36.05748483 105.61849042 -36.05292195 102.98697993 -36.04882812 100.35546875 C-36.03780089 93.90362617 -36.02106408 87.4518172 -36 81 C-37.15757812 81.04640625 -38.31515625 81.0928125 -39.5078125 81.140625 C-41.04684906 81.17816248 -42.5859137 81.21456051 -44.125 81.25 C-44.88554687 81.28351563 -45.64609375 81.31703125 -46.4296875 81.3515625 C-51.7826234 81.4438545 -54.75669401 80.56333092 -59 77 C-61.58177894 72.84670344 -61.07160426 69.66434889 -60 65 C-58.44582854 62.2466378 -56.53919132 59.83661452 -54.5625 57.375 C-54.02189941 56.67914795 -53.48129883 55.9832959 -52.92431641 55.26635742 C-51.81891103 53.84523788 -50.7079213 52.42844394 -49.59130859 51.01611328 C-47.73376499 48.66269274 -45.91049678 46.28463874 -44.09057617 43.90209961 C-42.86995795 42.30590655 -41.64308062 40.71473213 -40.4140625 39.125 C-38.01977692 36.02560119 -35.63454371 32.91939734 -33.25 29.8125 C-31.98944914 28.17480457 -30.72790259 26.53788273 -29.46582031 24.90136719 C-28.39670491 23.51457991 -27.32846497 22.12711758 -26.26074219 20.73925781 C-24.38513261 18.3030308 -22.50543005 15.87000753 -20.625 13.4375 C-20.02977539 12.66317627 -19.43455078 11.88885254 -18.82128906 11.09106445 C-9.41735072 -1.04834659 -9.41735072 -1.04834659 0 0 Z M-5 15 C-6.74944931 17.025838 -8.38285005 19.0594228 -10 21.1875 C-10.49201904 21.82461914 -10.98403809 22.46173828 -11.4909668 23.11816406 C-12.99979445 25.0743837 -14.50034138 27.03674668 -16 29 C-16.81843293 30.06424644 -17.63740429 31.12807912 -18.45703125 32.19140625 C-19.64139866 33.72931617 -20.82572886 35.26725892 -22.0065918 36.80786133 C-24.51041787 40.07370005 -27.03053284 43.32622958 -29.5625 46.5703125 C-30.18278076 47.3653418 -30.80306152 48.16037109 -31.44213867 48.97949219 C-32.65724642 50.53576907 -33.87349125 52.09115905 -35.09106445 53.64550781 C-41.31573327 60.38660374 -41.31573327 60.38660374 -45 68 C-44.43490723 68.01981934 -43.86981445 68.03963867 -43.28759766 68.06005859 C-40.73292003 68.15518236 -38.17907459 68.26491058 -35.625 68.375 C-34.73554688 68.4059375 -33.84609375 68.436875 -32.9296875 68.46875 C-32.07890625 68.50742188 -31.228125 68.54609375 -30.3515625 68.5859375 C-29.56604004 68.6173584 -28.78051758 68.6487793 -27.97119141 68.68115234 C-26 69 -26 69 -24 71 C-23.72825623 73.61877441 -23.72825623 73.61877441 -23.69702148 76.97851562 C-23.68037949 78.23321655 -23.66373749 79.48791748 -23.64659119 80.78063965 C-23.63802958 82.15584271 -23.62953198 83.53104617 -23.62109375 84.90625 C-23.60492393 86.31108767 -23.58774448 87.71591405 -23.56959534 89.12072754 C-23.52385775 92.82215157 -23.48907993 96.52359056 -23.45739746 100.22515869 C-23.40557045 106.15044823 -23.34043456 112.07557168 -23.26918221 118.00065613 C-23.24631665 120.07354265 -23.23006583 122.14640804 -23.21446228 124.21936035 C-23.20097244 125.47406128 -23.1874826 126.72876221 -23.17358398 128.02148438 C-23.16407211 129.13019897 -23.15456024 130.23891357 -23.14476013 131.38122559 C-23.17492049 133.98113009 -23.17492049 133.98113009 -22 136 C-10.12 136 1.76 136 14 136 C15.36517062 133.26965875 15.14736294 131.07783926 15.17358398 128.02148438 C15.18707382 126.76678345 15.20056366 125.51208252 15.21446228 124.21936035 C15.21952223 123.54713943 15.22458218 122.87491852 15.22979546 122.18232727 C15.24619153 120.08121933 15.2694271 117.98029132 15.29469299 115.87927246 C15.36551784 109.90544575 15.42567374 103.93154668 15.47680664 97.95751953 C15.50855171 94.30466865 15.5498121 90.65202629 15.59700203 86.99934387 C15.61304541 85.60549153 15.62535617 84.21159116 15.63390923 82.81767273 C15.64602732 80.87121106 15.67120594 78.92484382 15.69702148 76.97851562 C15.70732895 75.86980103 15.71763641 74.76108643 15.72825623 73.61877441 C16 71 16 71 18 69 C19.97119141 68.68115234 19.97119141 68.68115234 22.3515625 68.5859375 C23.20234375 68.54726562 24.053125 68.50859375 24.9296875 68.46875 C26.26386719 68.42234375 26.26386719 68.42234375 27.625 68.375 C28.97078125 68.31699219 28.97078125 68.31699219 30.34375 68.2578125 C32.5622927 68.16340643 34.78082403 68.07783252 37 68 C34.81937173 64.19947645 32.37666869 60.7700026 29.6875 57.3125 C29.25800049 56.75852539 28.82850098 56.20455078 28.38598633 55.63378906 C26.92696099 53.75353023 25.46374614 51.87658571 24 50 C22.31737992 47.83959267 20.63517731 45.6788617 18.95336914 43.51782227 C17.77394727 42.0031465 16.59344139 40.4893142 15.41186523 38.97631836 C12.33628615 35.03194583 9.28901331 31.06964764 6.28515625 27.0703125 C5.39437378 25.88840332 5.39437378 25.88840332 4.4855957 24.68261719 C3.34723574 23.16907402 2.21406563 21.65161052 1.08666992 20.12988281 C0.5785376 19.45538086 0.07040527 18.78087891 -0.453125 18.0859375 C-0.89817383 17.4882959 -1.34322266 16.8906543 -1.80175781 16.27490234 C-2.19717773 15.85418457 -2.59259766 15.4334668 -3 15 C-3.66 15 -4.32 15 -5 15 Z " fill="#000000" transform="translate(260,135)"/>
<path d="M0 0 C0.95390625 -0.0038269 1.9078125 -0.00765381 2.890625 -0.01159668 C4.90105245 -0.01431036 6.91151553 -0.00698737 8.921875 0.00976562 C11.99038787 0.03118291 15.05655952 0.00994534 18.125 -0.015625 C20.08333848 -0.01298163 22.0416755 -0.00785645 24 0 C25.36898437 -0.01214539 25.36898437 -0.01214539 26.765625 -0.02453613 C32.29204417 0.05638496 35.80325295 0.5874319 40 4.53125 C44.93136653 10.86034427 44.52480077 17.86984287 44.390625 25.5625 C44.38496521 26.79415894 44.37930542 28.02581787 44.37347412 29.2947998 C44.35118231 33.2073544 44.30099621 37.11897474 44.25 41.03125 C44.2276594 43.69269493 44.21167683 46.35413109 44.1953125 49.015625 C44.15134088 55.52114913 44.08449946 62.02613279 44 68.53125 C45.24136719 68.48484375 46.48273438 68.4384375 47.76171875 68.390625 C49.40362171 68.35309579 51.04555077 68.31669686 52.6875 68.28125 C53.50412109 68.24773437 54.32074219 68.21421875 55.16210938 68.1796875 C59.28231309 68.11296355 61.42143598 68.16993036 64.99609375 70.40234375 C68.16505923 73.76898349 69.04188882 76.05785617 68.91015625 80.69140625 C67.7155337 85.73138035 65.29437809 88.69743801 62.0625 92.65625 C61.4749292 93.39907227 60.8873584 94.14189453 60.28198242 94.90722656 C59.08961707 96.41456552 57.89214542 97.91788008 56.68945312 99.41699219 C54.35423882 102.33938466 52.08255855 105.30819374 49.8125 108.28125 C49.00941406 109.32410156 48.20632813 110.36695313 47.37890625 111.44140625 C45.80188021 113.48972742 44.22634141 115.53919455 42.65234375 117.58984375 C40.10562099 120.90679486 37.55435473 124.22017511 35 127.53125 C34.42072754 128.2826123 33.84145508 129.03397461 33.24462891 129.80810547 C31.35302571 132.25938363 29.45813445 134.7080884 27.5625 137.15625 C26.95889648 137.93895264 26.35529297 138.72165527 25.73339844 139.52807617 C25.16266602 140.26388916 24.59193359 140.99970215 24.00390625 141.7578125 C23.49674072 142.41346191 22.9895752 143.06911133 22.46704102 143.74462891 C19.68081316 147.13780838 18.09671523 148.90260972 13.625 149.40625 C12.87476563 149.50679687 12.12453125 149.60734375 11.3515625 149.7109375 C7.08442956 149.38487751 4.63193281 147.19165811 1.74609375 144.17578125 C0.98425781 143.24121094 0.22242188 142.30664062 -0.5625 141.34375 C-0.98885742 140.82184082 -1.41521484 140.29993164 -1.85449219 139.76220703 C-5.7846815 134.90267693 -9.52518704 129.90112097 -13.25170898 124.88476562 C-17.14204826 119.65069316 -21.11313133 114.48516337 -25.125 109.34375 C-25.71224854 108.58980957 -26.29949707 107.83586914 -26.90454102 107.05908203 C-29.59656861 103.60483347 -32.29484184 100.15574502 -35.00390625 96.71484375 C-35.89856219 95.57040997 -36.79310157 94.42588505 -37.6875 93.28125 C-38.45449219 92.30671875 -39.22148437 91.3321875 -40.01171875 90.328125 C-42.93820515 86.2114958 -45.02736645 83.09113756 -44.9375 77.96875 C-43.91869576 74.23313446 -42.67878703 72.2912124 -40 69.53125 C-37.703463 68.3829815 -36.41686833 68.41563825 -33.8671875 68.43359375 C-33.06152344 68.43681641 -32.25585938 68.44003906 -31.42578125 68.44335938 C-30.16314453 68.45592773 -30.16314453 68.45592773 -28.875 68.46875 C-28.02550781 68.47326172 -27.17601562 68.47777344 -26.30078125 68.48242188 C-24.20049091 68.49422126 -22.1002367 68.51215694 -20 68.53125 C-20.00888245 67.84744263 -20.01776489 67.16363525 -20.0269165 66.45910645 C-20.11563393 59.32113023 -20.17583582 52.18331149 -20.21972656 45.04492188 C-20.23753649 42.38314753 -20.26706285 39.72223972 -20.30175781 37.06054688 C-20.35045548 33.2277542 -20.37301116 29.39554637 -20.390625 25.5625 C-20.41127014 24.37885864 -20.43191528 23.19521729 -20.45318604 21.97570801 C-20.45496983 15.35972566 -20.17803305 9.89348881 -16 4.53125 C-11.06126189 -0.10984094 -6.43120054 -0.05705647 0 0 Z M-7 14.53125 C-7.45797666 17.30396868 -7.45797666 17.30396868 -7.38476562 20.6015625 C-7.39487671 21.87628418 -7.40498779 23.15100586 -7.41540527 24.46435547 C-7.41307137 25.48888824 -7.41307137 25.48888824 -7.41069031 26.53411865 C-7.40622322 28.66904894 -7.42017858 30.80314544 -7.43908691 32.93798828 C-7.47591761 37.46906181 -7.48958977 42.00004877 -7.5 46.53125 C-7.51206092 51.78093701 -7.5335069 57.03021931 -7.58000183 62.27972412 C-7.59361924 64.38602373 -7.58939298 66.49181782 -7.58459473 68.59814453 C-7.59470581 69.87286621 -7.60481689 71.14758789 -7.61523438 72.4609375 C-7.61728882 73.58741699 -7.61934326 74.71389648 -7.62145996 75.87451172 C-7.74637817 76.75123535 -7.87129639 77.62795898 -8 78.53125 C-11.0211434 80.5453456 -11.80660017 80.79961596 -15.23046875 80.9453125 C-16.03291016 80.98398437 -16.83535156 81.02265625 -17.66210938 81.0625 C-18.49548828 81.0934375 -19.32886719 81.124375 -20.1875 81.15625 C-21.03248047 81.19492187 -21.87746094 81.23359375 -22.74804688 81.2734375 C-24.83167524 81.36761279 -26.91580753 81.45051675 -29 81.53125 C-26.35327762 85.57917835 -23.59030335 89.45570506 -20.625 93.28125 C-19.98860596 94.10435669 -19.98860596 94.10435669 -19.33935547 94.9440918 C-16.7869853 98.24162312 -14.22197158 101.52925895 -11.65625 104.81640625 C-3.99212245 114.64007476 3.56343071 124.53410374 11 134.53125 C14.87131421 133.24081193 15.68833851 131.5731908 18.0625 128.28125 C18.87157812 127.17388126 19.68150218 126.06713018 20.4921875 124.9609375 C21.11625488 124.10387207 21.11625488 124.10387207 21.75292969 123.22949219 C23.69080177 120.59052621 25.68846185 117.99906185 27.6875 115.40625 C28.09009033 114.88289063 28.49268066 114.35953125 28.9074707 113.8203125 C31.43361786 110.54168569 33.97948208 107.27909953 36.53515625 104.0234375 C37.45711792 102.84612061 37.45711792 102.84612061 38.39770508 101.64501953 C39.59654869 100.11513897 40.79803883 98.58732704 42.00268555 97.06201172 C45.93108645 92.04561579 49.5380858 86.87976594 53 81.53125 C51.73542969 81.48226562 50.47085938 81.43328125 49.16796875 81.3828125 C47.50779053 81.3077762 45.84763536 81.23222873 44.1875 81.15625 C43.35412109 81.1253125 42.52074219 81.094375 41.66210938 81.0625 C40.85966797 81.02382813 40.05722656 80.98515625 39.23046875 80.9453125 C38.12288208 80.89818115 38.12288208 80.89818115 36.99291992 80.85009766 C35 80.53125 35 80.53125 32 78.53125 C31.62145996 75.87451172 31.62145996 75.87451172 31.61523438 72.4609375 C31.60512329 71.18621582 31.59501221 69.91149414 31.58459473 68.59814453 C31.58615067 67.91512268 31.5877066 67.23210083 31.58930969 66.52838135 C31.59377678 64.39345106 31.57982142 62.25935456 31.56091309 60.12451172 C31.51782024 54.82304044 31.50687016 49.52158641 31.49468994 44.2199707 C31.48317975 39.74072673 31.45966949 35.26186162 31.41999817 30.78277588 C31.40638076 28.67647627 31.41060702 26.57068218 31.41540527 24.46435547 C31.40529419 23.18963379 31.39518311 21.91491211 31.38476562 20.6015625 C31.38271118 19.47508301 31.38065674 18.34860352 31.37854004 17.18798828 C31.25362183 16.31126465 31.12870361 15.43454102 31 14.53125 C27.26356456 12.04029304 25.27455265 12.27333338 20.8125 12.265625 C20.11358643 12.26371155 19.41467285 12.2617981 18.69458008 12.25982666 C17.21858357 12.25846717 15.74257502 12.26214718 14.26660156 12.27050781 C12.00819016 12.28121118 9.75057418 12.2706051 7.4921875 12.2578125 C6.05728991 12.25913414 4.62239282 12.26169662 3.1875 12.265625 C1.22876953 12.26900879 1.22876953 12.26900879 -0.76953125 12.27246094 C-4.14958568 12.27962197 -4.14958568 12.27962197 -7 14.53125 Z " fill="#000000" transform="translate(244,355.46875)"/>
<path d="M0 0 C12.59740436 11.81737932 22.04342072 29.71095397 24 47 C23.82104939 50.22111101 23.48251582 52.16900052 21.875 54.9375 C18.80365094 56.67793113 16.31631617 55.78385655 13 55 C10.50506641 52.50506641 10.22558982 50.19372473 9.4543457 46.83007812 C5.23867675 28.51066039 -3.13594743 13.11257421 -19.30859375 2.55859375 C-34.22738427 -6.08088001 -50.21499985 -10.19721054 -67.4375 -8.65625 C-68.15969727 -8.59211914 -68.88189453 -8.52798828 -69.62597656 -8.46191406 C-71.64457519 -8.26051825 -73.65855183 -8.01428244 -75.671875 -7.765625 C-79 -8 -79 -8 -81.45703125 -10.3203125 C-83 -13 -83 -13 -82.9375 -15.625 C-81.88706669 -18.28609772 -81.27094364 -19.27559052 -79 -21 C-50.62775303 -27.87386948 -21.5118191 -18.96055214 0 0 Z " fill="#000000" transform="translate(356,58)"/>
</svg>
