<?xml version="1.0" encoding="UTF-8"?>
<svg version="1.1" xmlns="http://www.w3.org/2000/svg" width="512" height="512">
<path d="M0 0 C3.6385192 0.56840898 5.18793522 1.87973936 7.64453125 4.5703125 C8.32193359 5.3025 8.99933594 6.0346875 9.69726562 6.7890625 C10.74430664 7.94535156 10.74430664 7.94535156 11.8125 9.125 C13.19294487 10.62858314 14.57444626 12.13119702 15.95703125 13.6328125 C16.62686035 14.36274414 17.29668945 15.09267578 17.98681641 15.84472656 C20.91229423 18.97668366 23.94025705 21.99973369 27 25 C24.79448154 29.03534921 22.20738439 32.05005164 18.96484375 35.30078125 C18.48551895 35.7820195 18.00619415 36.26325775 17.51234436 36.75907898 C16.50539536 37.76738128 15.49594707 38.77319327 14.48413086 39.77661133 C12.93168514 41.31827448 11.39028784 42.87041475 9.84960938 44.42382812 C8.86782876 45.40428838 7.88542858 46.38412871 6.90234375 47.36328125 C6.01023193 48.25313721 5.11812012 49.14299316 4.19897461 50.05981445 C2 52 2 52 0 52 C-0.04898438 51.25234375 -0.09796875 50.5046875 -0.1484375 49.734375 C-0.26058594 48.25710937 -0.26058594 48.25710937 -0.375 46.75 C-0.47941406 45.28820312 -0.47941406 45.28820312 -0.5859375 43.796875 C-0.98910348 41.07360292 -1.52789508 39.30876887 -3 37 C-8.93848275 34.03075863 -19.73458287 35.28747132 -26.1328125 36.68359375 C-28.5881027 37.6110623 -30.74749498 38.65603325 -33 40 C-34.07121094 40.63615234 -34.07121094 40.63615234 -35.1640625 41.28515625 C-41.87102773 45.79414598 -46.42664125 52.03452511 -48.57967186 59.84346199 C-49.43481688 64.23087404 -49.28539044 68.67816611 -49.2746582 73.13256836 C-49.27976913 74.23264725 -49.28488007 75.33272614 -49.29014587 76.46614075 C-49.30400888 80.09076426 -49.30308764 83.71519693 -49.30078125 87.33984375 C-49.30466977 89.86658295 -49.30900476 92.3933215 -49.31376648 94.9200592 C-49.32122147 100.21162302 -49.32108137 105.50311722 -49.31567383 110.79467773 C-49.30963427 116.89604251 -49.32195008 122.99717666 -49.3432439 129.0985021 C-49.36303394 134.98728098 -49.36602781 140.87598886 -49.36250877 146.76480293 C-49.36302143 149.26180119 -49.3682486 151.75880318 -49.37832069 154.25578117 C-49.39068694 157.75004618 -49.38389187 161.2437803 -49.37231445 164.73803711 C-49.37995819 165.76426178 -49.38760193 166.79048645 -49.39547729 167.84780884 C-49.33545743 176.06311878 -47.94282226 182.88738282 -42 189 C-34.27508928 194.87764946 -27.34739734 195.38657452 -17.9375 195.4375 C-16.32391602 195.48680664 -16.32391602 195.48680664 -14.67773438 195.53710938 C-8.3565038 195.59752752 -8.3565038 195.59752752 -2.8046875 192.8359375 C-0.81657761 189.71176481 -0.32027819 187.86102991 -0.1875 184.1875 C-0.11595703 182.72376953 -0.11595703 182.72376953 -0.04296875 181.23046875 C-0.02878906 180.49441406 -0.01460938 179.75835937 0 179 C3.90851199 180.58431453 6.52367356 183.26635095 9.421875 186.2265625 C9.92672424 186.73424164 10.43157349 187.24192078 10.95172119 187.76498413 C12.55592096 189.38033842 14.15300856 191.00252209 15.75 192.625 C16.83938107 193.72441698 17.9292199 194.82338059 19.01953125 195.921875 C21.68501885 198.6093602 24.34415143 201.30299021 27 204 C25.41588094 207.8826895 22.77134362 210.51864365 19.84375 213.421875 C19.34081421 213.92672424 18.83787842 214.43157349 18.31970215 214.95172119 C17.25970014 216.01307997 16.19718512 217.07193419 15.13232422 218.12841797 C13.49859954 219.75139124 11.87586706 221.38481068 10.25390625 223.01953125 C9.22199524 224.05012146 8.18946441 225.08009152 7.15625 226.109375 C6.66974976 226.59992371 6.18324951 227.09047241 5.68200684 227.59588623 C2.22994349 231 2.22994349 231 0 231 C-0.01417969 230.26394531 -0.02835937 229.52789062 -0.04296875 228.76953125 C-0.11451172 227.30580078 -0.11451172 227.30580078 -0.1875 225.8125 C-0.22230469 224.84957031 -0.25710937 223.88664063 -0.29296875 222.89453125 C-1.30414117 218.75486957 -2.46012215 217.41493507 -6 215 C-9.93180574 214.28953389 -13.76534995 214.3480388 -17.75 214.4375 C-19.32007812 214.42106445 -19.32007812 214.42106445 -20.921875 214.40429688 C-29.10252981 214.48099051 -34.78830636 216.51127194 -41.75 220.625 C-48.34812404 227.58968648 -49.73531183 235.26714003 -49.61523438 244.54907227 C-49.62078339 245.65773651 -49.6263324 246.76640076 -49.63204956 247.90866089 C-49.64378551 251.54502649 -49.61963157 255.18012925 -49.59375 258.81640625 C-49.59203733 261.35888106 -49.59210617 263.90135763 -49.59387207 266.4438324 C-49.59222228 271.76051176 -49.57417463 277.07675728 -49.54199219 282.39331055 C-49.50508844 288.51917723 -49.49632125 294.64457647 -49.5032897 300.77053982 C-49.50961832 306.69193303 -49.49858149 312.61318889 -49.47932434 318.53455925 C-49.47231367 321.04188194 -49.46916745 323.54921863 -49.47001648 326.05655098 C-49.46821095 329.56473022 -49.44676386 333.07225652 -49.41992188 336.58032227 C-49.42431778 338.12122276 -49.42431778 338.12122276 -49.42880249 339.69325256 C-49.30216211 350.4667865 -46.3932287 358.11593454 -39 366 C-30.20284462 374.14851719 -20.32306361 374.39378101 -8.9140625 374.203125 C-5.09336245 374.17925187 -5.09336245 374.17925187 -2 373 C-1.34 368.05 -0.68 363.1 0 358 C3.95794285 359.97897143 6.06710246 361.80929876 9.16796875 364.90234375 C9.64825027 365.38071182 10.1285318 365.8590799 10.62336731 366.35194397 C11.63345145 367.36067151 12.6410319 368.37191163 13.64624023 369.38549805 C15.18581484 370.93580309 16.73579337 372.47512593 18.28710938 374.01367188 C19.26887128 374.996755 20.2500128 375.98045816 21.23046875 376.96484375 C22.56694458 378.30470337 22.56694458 378.30470337 23.93041992 379.67163086 C26 382 26 382 27 385 C23.48259521 388.56673193 19.95875538 392.12692951 16.42871094 395.68115234 C15.22801105 396.89192849 14.0291098 398.10449101 12.83203125 399.31884766 C11.11404252 401.06101338 9.38975125 402.79671544 7.6640625 404.53125 C7.12754059 405.07809448 6.59101868 405.62493896 6.03823853 406.18835449 C4.72957713 407.49741098 3.36903374 408.75421906 2 410 C1.34 410 0.68 410 0 410 C-0.01417969 409.26394531 -0.02835937 408.52789062 -0.04296875 407.76953125 C-0.11451172 406.30580078 -0.11451172 406.30580078 -0.1875 404.8125 C-0.22230469 403.84957031 -0.25710937 402.88664062 -0.29296875 401.89453125 C-1.27723795 397.86500929 -2.64070582 396.42252602 -6 394 C-9.00718889 393.36372849 -11.93569042 393.40228503 -15 393.4375 C-32.03417848 393.07929705 -45.15617282 387.24805336 -57 375 C-69.53132576 360.60812805 -68.701338 342.60870292 -68.6015625 324.6953125 C-68.60707193 322.15997641 -68.61520485 319.62464479 -68.62582397 317.08932495 C-68.64858459 310.45445473 -68.64458086 303.81986391 -68.63201904 297.18499756 C-68.6121315 286.54684242 -68.62373287 275.90886671 -68.65787888 265.27074814 C-68.66396056 261.56984412 -68.6507564 257.86935861 -68.63589478 254.16848755 C-68.63884335 251.89243462 -68.64249838 249.61638247 -68.64697266 247.34033203 C-68.63303719 245.81121437 -68.63303719 245.81121437 -68.61882019 244.25120544 C-68.66985028 235.04561823 -70.46782575 227.50279536 -76.93359375 220.7265625 C-84.224347 214.63485562 -92.86147583 214.38887337 -102 214 C-102 208.06 -102 202.12 -102 196 C-100.06125 195.9175 -98.1225 195.835 -96.125 195.75 C-86.55754545 194.97004447 -79.86521952 192.82323714 -73.47265625 185.48828125 C-69.14490803 178.17587908 -68.56531444 170.92112209 -68.61523438 162.58032227 C-68.6098616 161.47341034 -68.60448883 160.36649841 -68.59895325 159.2260437 C-68.5892126 156.83623048 -68.58621979 154.44638205 -68.58930969 152.05655098 C-68.59380728 148.26815683 -68.57973192 144.48022496 -68.56091309 140.69187927 C-68.52421903 132.64875166 -68.51028265 124.60569391 -68.5 116.5625 C-68.48807978 107.24130602 -68.46627849 97.92036258 -68.41999817 88.59925652 C-68.40647376 84.87797406 -68.41059037 81.1569814 -68.41540527 77.4356842 C-68.40606012 75.14014319 -68.39589016 72.84460534 -68.38476562 70.54907227 C-68.39091385 69.5238295 -68.39706207 68.49858673 -68.40339661 67.442276 C-68.27999057 52.87354612 -62.65261889 40.9598434 -52.67578125 30.48046875 C-44.08639145 22.51804171 -32.29654886 17.11469517 -20.53125 16.859375 C-19.71269531 16.84003906 -18.89414063 16.82070312 -18.05078125 16.80078125 C-16.35049962 16.76693185 -14.64983529 16.74869806 -12.94921875 16.74609375 C-8.63933734 16.61713667 -6.5450682 16.39113366 -2.95703125 13.81640625 C-0.78222043 10.68658868 -0.32380567 8.95862367 -0.1875 5.1875 C-0.13980469 4.21167969 -0.09210938 3.23585937 -0.04296875 2.23046875 C-0.02878906 1.49441406 -0.01460938 0.75835937 0 0 Z " fill="#000000" transform="translate(119,51)"/>
<path d="M0 0 C2.8203125 -0.29296875 2.8203125 -0.29296875 6.125 -0.1875 C7.76855469 -0.14689453 7.76855469 -0.14689453 9.4453125 -0.10546875 C10.70988281 -0.05326172 10.70988281 -0.05326172 12 0 C16 6.75 16 6.75 16 9 C16.65226562 9.18175781 17.30453125 9.36351562 17.9765625 9.55078125 C21.92929731 10.68762976 25.53983977 11.75638576 29.1875 13.6875 C33.78794476 15.83437422 37.69713303 15.37224771 42.5 14 C46 14 46 14 48.06640625 15.50390625 C50.07640679 17.57684223 51.63239137 19.45561185 53 22 C52.375 25.0625 52.375 25.0625 51 28 C51.14110976 34.9143781 53.84938346 41.91358169 57 48 C59.9022581 50.7196967 62.41214128 52.20607064 66 54 C66 58.29 66 62.58 66 67 C64.783125 67.4125 63.56625 67.825 62.3125 68.25 C56.25472696 71.20919533 55.09997173 77.00938296 53 83 C52.63132812 83.72445312 52.26265625 84.44890625 51.8828125 85.1953125 C50.03878523 88.96496117 50.84970972 92.4927703 52 96.375 C52.33 97.24125 52.66 98.1075 53 99 C50.36 101.64 47.72 104.28 45 107 C43.40494792 106.44661458 41.80989583 105.89322917 40.21484375 105.33984375 C32.20477022 104.11078485 23.78604857 108.03654199 17 112 C14.76613853 114.71080792 14.0566661 116.595187 13 120 C8.38 120 3.76 120 -1 120 C-1.33 118.824375 -1.66 117.64875 -2 116.4375 C-4.36987828 111.61156605 -8.10035548 110.01377531 -12.8125 107.9375 C-13.50021484 107.62675537 -14.18792969 107.31601074 -14.89648438 106.99584961 C-20.58123181 104.66874032 -24.75631712 105.01692188 -30.66796875 106.80859375 C-33 107 -33 107 -35.23828125 105.34765625 C-36.26501953 104.21650391 -36.26501953 104.21650391 -37.3125 103.0625 C-38.00988281 102.31097656 -38.70726562 101.55945313 -39.42578125 100.78515625 C-39.94527344 100.19605469 -40.46476563 99.60695313 -41 99 C-40.67 98.13375 -40.34 97.2675 -40 96.375 C-38.26621759 90.52348438 -38.88693741 86.48266522 -41.3125 80.9375 C-41.95638672 79.43509766 -41.95638672 79.43509766 -42.61328125 77.90234375 C-45.32014205 71.72955918 -45.32014205 71.72955918 -50.6875 68.1875 C-51.780625 67.795625 -52.87375 67.40375 -54 67 C-54.46599548 62.5795151 -54.70845829 58.40217594 -54 54 C-52.16444923 52.22250801 -50.42317411 51.48764614 -48.10546875 50.4375 C-43.75574504 47.4677443 -42.69487737 41.77587538 -41 37 C-40.61972656 36.30132812 -40.23945313 35.60265625 -39.84765625 34.8828125 C-38.01518719 30.81253559 -39.64571423 26.06285732 -41 22 C-39.39958398 18.46713144 -37.2594384 16.08440574 -34 14 C-30.34141819 13.82701741 -27.0010138 14.25833711 -23.375 14.75 C-18.50406408 15.11081007 -15.97880484 13.52466765 -12 11 C-10.73669372 10.50132647 -9.46582132 10.02131657 -8.1875 9.5625 C-4.58881768 7.79844004 -3.68807779 6.55384798 -2 3 C-1.34 2.01 -0.68 1.02 0 0 Z M-11 31 C-11.69480469 31.42410156 -12.38960937 31.84820312 -13.10546875 32.28515625 C-21.39882827 37.8711151 -25.53373837 45.34483379 -27.59375 55.01953125 C-28.84545884 64.2027413 -26.52206824 72.74660182 -21.37890625 80.41796875 C-15.48543998 87.73272835 -7.34399057 92.58144037 2 94 C12.38052059 94.70376411 20.94798957 91.55288373 29 85 C35.98028409 78.65711379 39.52909226 69.99269864 40.0859375 60.62890625 C39.75351207 50.45971026 36.02501489 42.3206805 29 35 C25.82909887 32.59531966 22.60065749 30.68578907 19 29 C18.23558594 28.62746094 17.47117187 28.25492187 16.68359375 27.87109375 C7.86482924 25.00852536 -3.23469539 26.00468381 -11 31 Z " fill="#000000" transform="translate(250,375)"/>
<path d="M0 0 C4.41943263 -0.46588455 8.59780004 -0.7010911 13 0 C14.4140625 1.53515625 14.4140625 1.53515625 15.3125 3.5625 C17.57267431 8.50663131 21.04295542 9.96782958 25.8125 12.0625 C26.48901611 12.37324463 27.16553223 12.68398926 27.86254883 13.00415039 C33.63499372 15.40037736 38.26645542 15.3511254 44.234375 13.19140625 C46 13 46 13 48.140625 14.65234375 C48.83671875 15.40644531 49.5328125 16.16054688 50.25 16.9375 C50.95640625 17.68902344 51.6628125 18.44054687 52.390625 19.21484375 C52.92171875 19.80394531 53.4528125 20.39304687 54 21 C53.67 21.86625 53.34 22.7325 53 23.625 C51.26621759 29.47651562 51.88693741 33.51733478 54.3125 39.0625 C54.95638672 40.56490234 54.95638672 40.56490234 55.61328125 42.09765625 C58.32014205 48.27044082 58.32014205 48.27044082 63.6875 51.8125 C64.780625 52.204375 65.87375 52.59625 67 53 C67.46599548 57.4204849 67.70845829 61.59782406 67 66 C65.16444923 67.77749199 63.42317411 68.51235386 61.10546875 69.5625 C56.75574504 72.5322557 55.69487737 78.22412462 54 83 C53.61972656 83.69867188 53.23945313 84.39734375 52.84765625 85.1171875 C51.01518719 89.18746441 52.64571423 93.93714268 54 98 C52.4010028 101.52973657 50.25230169 103.91070493 47 106 C43.49367511 106.09739791 40.26318471 105.6001512 36.79296875 105.10546875 C30.97615715 104.94372425 26.90642264 107.12228751 21.765625 109.65234375 C19 111 19 111 17 111 C16.71125 111.928125 16.4225 112.85625 16.125 113.8125 C15 117 15 117 13 120 C8.91359877 120.88729835 5.08680826 120.87574463 1 120 C-0.78616399 118.1390459 -1.63589417 116.359181 -2.734375 114.03515625 C-5.05796697 110.29876298 -9.03522404 109.45774178 -13 108 C-14.546875 107.13375 -14.546875 107.13375 -16.125 106.25 C-20.78442422 104.22416338 -24.67914818 104.62261377 -29.5 106 C-33 106 -33 106 -35.06640625 104.49609375 C-37.07640679 102.42315777 -38.63239137 100.54438815 -40 98 C-39.375 94.9375 -39.375 94.9375 -38 92 C-38.14110976 85.0856219 -40.84938346 78.08641831 -44 72 C-46.9022581 69.2803033 -49.41214128 67.79392936 -53 66 C-53 61.71 -53 57.42 -53 53 C-51.783125 52.5875 -50.56625 52.175 -49.3125 51.75 C-43.25472696 48.79080467 -42.09997173 42.99061704 -40 37 C-39.63132813 36.27554688 -39.26265625 35.55109375 -38.8828125 34.8046875 C-37.03878523 31.03503883 -37.84970972 27.5072297 -39 23.625 C-39.33 22.75875 -39.66 21.8925 -40 21 C-37.36 18.36 -34.72 15.72 -32 13 C-30.989375 13.350625 -29.97875 13.70125 -28.9375 14.0625 C-21.64544341 16.59239719 -13.75606459 12.85868116 -7.13671875 9.83203125 C-2.61857582 7.1931657 -1.5242149 4.91135911 0 0 Z M-19.3125 38.3125 C-25.09294455 45.66651002 -27.45876394 53.65268475 -27 63 C-25.28006335 72.67464364 -21.58879065 80.94812678 -13.5 86.8125 C-4.30036104 92.50751459 3.2643114 93.88359577 14 93 C22.65958596 90.96245036 30.05189056 86.02270766 35.3125 78.875 C40.36900392 70.65472723 42.17609116 61.41461663 40 52 C37.57856902 43.09848951 32.91389068 36.03373796 24.98828125 31.140625 C9.15795255 22.96259541 -6.91140484 24.9168308 -19.3125 38.3125 Z " fill="#000000" transform="translate(249,17)"/>
<path d="M0 0 C4.09400492 -0.47012497 7.92507156 -0.70517256 12 0 C13.70159757 1.83558163 14.47445232 3.63261621 15.52734375 5.89453125 C18.5556351 10.22410429 24.20240685 11.29741536 29 13 C29.72316406 13.36867187 30.44632812 13.73734375 31.19140625 14.1171875 C34.96453243 15.95892944 38.48988628 15.15114481 42.375 14 C43.24125 13.67 44.1075 13.34 45 13 C47.64 15.64 50.28 18.28 53 21 C52.67 21.86625 52.34 22.7325 52 23.625 C50.26621759 29.47651562 50.88693741 33.51733478 53.3125 39.0625 C53.95638672 40.56490234 53.95638672 40.56490234 54.61328125 42.09765625 C57.46654888 48.26928737 57.46654888 48.26928737 62.6875 52.3125 C63.780625 52.869375 64.87375 53.42625 66 54 C66.47012497 58.09400492 66.70517256 61.92507156 66 66 C64.16441837 67.70159757 62.36738379 68.47445232 60.10546875 69.52734375 C55.77589571 72.5556351 54.70258464 78.20240685 53 83 C52.63132812 83.72316406 52.26265625 84.44632812 51.8828125 85.19140625 C50.04107056 88.96453243 50.84885519 92.48988628 52 96.375 C52.33 97.24125 52.66 98.1075 53 99 C50.36 101.64 47.72 104.28 45 107 C44.13375 106.67 43.2675 106.34 42.375 106 C36.52348438 104.26621759 32.48266522 104.88693741 26.9375 107.3125 C25.43509766 107.95638672 25.43509766 107.95638672 23.90234375 108.61328125 C17.73071263 111.46654888 17.73071263 111.46654888 13.6875 116.6875 C13.130625 117.780625 12.57375 118.87375 12 120 C7.90599508 120.47012497 4.07492844 120.70517256 0 120 C-1.70159757 118.16441837 -2.47445232 116.36738379 -3.52734375 114.10546875 C-6.5556351 109.77589571 -12.20240685 108.70258464 -17 107 C-17.72316406 106.63132812 -18.44632813 106.26265625 -19.19140625 105.8828125 C-22.96453243 104.04107056 -26.48988628 104.84885519 -30.375 106 C-31.674375 106.495 -31.674375 106.495 -33 107 C-35.64 104.36 -38.28 101.72 -41 99 C-40.67 98.13375 -40.34 97.2675 -40 96.375 C-38.26621759 90.52348438 -38.88693741 86.48266522 -41.3125 80.9375 C-41.95638672 79.43509766 -41.95638672 79.43509766 -42.61328125 77.90234375 C-45.46654888 71.73071263 -45.46654888 71.73071263 -50.6875 67.6875 C-51.780625 67.130625 -52.87375 66.57375 -54 66 C-54.47012497 61.90599508 -54.70517256 58.07492844 -54 54 C-52.16441837 52.29840243 -50.36738379 51.52554768 -48.10546875 50.47265625 C-43.77589571 47.4443649 -42.70258464 41.79759315 -41 37 C-40.63132813 36.27683594 -40.26265625 35.55367187 -39.8828125 34.80859375 C-38.04107056 31.03546757 -38.84885519 27.51011372 -40 23.625 C-40.33 22.75875 -40.66 21.8925 -41 21 C-38.36 18.36 -35.72 15.72 -33 13 C-32.13375 13.33 -31.2675 13.66 -30.375 14 C-24.52348438 15.73378241 -20.48266522 15.11306259 -14.9375 12.6875 C-13.93589844 12.25824219 -12.93429688 11.82898438 -11.90234375 11.38671875 C-5.73071263 8.53345112 -5.73071263 8.53345112 -1.6875 3.3125 C-1.130625 2.219375 -0.57375 1.12625 0 0 Z M-19 37 C-25.30439236 44.3297221 -28.48473585 52.86274457 -27.9375 62.5625 C-26.53369002 72.93591692 -22.29443984 80.87909979 -14.15625 87.5 C-6.5143597 92.76162939 2.13607341 94.80717311 11.3046875 93.56640625 C21.28802832 91.46845782 28.93507908 86.72630792 34.8125 78.3125 C39.43136824 70.2177377 41.11051305 61.08248376 39 52 C36.29743482 42.41684996 30.92912585 35.03384485 22.2421875 30.03125 C7.84686548 23.41040503 -7.70797848 25.47985683 -19 37 Z " fill="#000000" transform="translate(250,196)"/>
<path d="M0 0 C3.96202438 0.52944646 5.41644628 2.24989769 7.9375 5.25 C10.68543298 8.44901746 13.44844402 11.47916034 16.51171875 14.37890625 C17.4080603 15.23403809 17.4080603 15.23403809 18.32250977 16.10644531 C19.51084994 17.23120776 20.71042859 18.34423049 21.92163086 19.44433594 C23.5703125 21.01953125 23.5703125 21.01953125 26 24 C25.94403395 28.09705646 24.25063345 30.21563633 21.43128967 33.07319641 C20.93962814 33.55048691 20.44796661 34.0277774 19.94140625 34.51953125 C19.43705551 35.02296555 18.93270477 35.52639984 18.41307068 36.04508972 C17.34935581 37.10278126 16.28080276 38.15562662 15.20776367 39.20385742 C13.56102342 40.81394371 11.93099491 42.43960803 10.30273438 44.06835938 C9.26656641 45.09470129 8.22948795 46.12012499 7.19140625 47.14453125 C6.70176895 47.6319429 6.21213165 48.11935455 5.70765686 48.62153625 C2.23217661 52 2.23217661 52 0 52 C-0.04898438 51.16855469 -0.09796875 50.33710937 -0.1484375 49.48046875 C-0.22320312 48.39378906 -0.29796875 47.30710938 -0.375 46.1875 C-0.47941406 44.56908203 -0.47941406 44.56908203 -0.5859375 42.91796875 C-0.81195733 39.81373814 -0.81195733 39.81373814 -3 37 C-5.69335406 36.10221531 -7.27711734 35.86683076 -10.04325867 35.84178162 C-10.8635556 35.8319928 -11.68385254 35.82220398 -12.52900696 35.81211853 C-13.87336067 35.80348534 -13.87336067 35.80348534 -15.24487305 35.79467773 C-16.19140747 35.78477814 -17.13794189 35.77487854 -18.11315918 35.76467896 C-21.24598681 35.73305761 -24.37882961 35.70830394 -27.51171875 35.68359375 C-29.68219907 35.66302478 -31.85267537 35.64202832 -34.02314758 35.62062073 C-39.73923496 35.56539423 -45.45535853 35.51598745 -51.17150879 35.46777344 C-57.00304387 35.41756267 -62.83452633 35.36187438 -68.66601562 35.30664062 C-80.11063382 35.19905194 -91.55529666 35.09811458 -103 35 C-103 29.06 -103 23.12 -103 17 C-100.11805908 16.98541748 -97.23611816 16.97083496 -94.2668457 16.95581055 C-84.74729679 16.90548445 -75.22791179 16.83889281 -65.70852375 16.76428509 C-59.93663744 16.71954844 -54.16482226 16.68029943 -48.39282227 16.65356445 C-42.82302041 16.62756457 -37.25349178 16.58718533 -31.68385887 16.53681374 C-29.55842676 16.52012264 -27.43294737 16.50862236 -25.30745888 16.50238609 C-22.33138986 16.49276956 -19.3560234 16.46473904 -16.38012695 16.43237305 C-15.06058517 16.43452568 -15.06058517 16.43452568 -13.71438599 16.4367218 C-9.00594627 16.36425337 -5.81168497 16.08210407 -2 13 C-0.71553081 10.43106162 -0.67022856 8.23423663 -0.4375 5.375 C-0.31181641 3.87066406 -0.31181641 3.87066406 -0.18359375 2.3359375 C-0.12300781 1.56507812 -0.06242187 0.79421875 0 0 Z " fill="#000000" transform="translate(469,51)"/>
<path d="M0 0 C5.52235593 2.76117797 9.41887812 6.9715127 13.75610352 11.27563477 C15.31123897 12.8112548 16.88638496 14.32425853 18.46289062 15.83789062 C19.45183064 16.81377863 20.43950616 17.79095004 21.42578125 18.76953125 C22.77796753 20.09368042 22.77796753 20.09368042 24.1574707 21.44458008 C26 24 26 24 26.10205078 26.48193359 C24.65086899 29.79772647 22.4989348 32.03675805 19.94140625 34.51953125 C19.43705551 35.02296555 18.93270477 35.52639984 18.41307068 36.04508972 C17.34935581 37.10278126 16.28080276 38.15562662 15.20776367 39.20385742 C13.56102342 40.81394371 11.93099491 42.43960803 10.30273438 44.06835938 C9.26656641 45.09470129 8.22948795 46.12012499 7.19140625 47.14453125 C6.70176895 47.6319429 6.21213165 48.11935455 5.70765686 48.62153625 C2.23217661 52 2.23217661 52 0 52 C-0.05607422 50.75283203 -0.05607422 50.75283203 -0.11328125 49.48046875 C-0.17902344 48.39378906 -0.24476563 47.30710937 -0.3125 46.1875 C-0.37050781 45.10855469 -0.42851562 44.02960938 -0.48828125 42.91796875 C-0.78724299 40.04811185 -0.78724299 40.04811185 -2.23046875 38.17578125 C-6.80266932 35.13774069 -12.91322805 35.82999494 -18.1965332 35.79467773 C-19.11409897 35.78477814 -20.03166473 35.77487854 -20.97703552 35.76467896 C-24.00159143 35.73316099 -27.02616303 35.70834493 -30.05078125 35.68359375 C-32.15114239 35.66301585 -34.25149947 35.64201915 -36.35185242 35.62062073 C-41.8739187 35.56548648 -47.39602183 35.5160391 -52.91815186 35.46777344 C-58.55549388 35.41749524 -64.19278255 35.36184217 -69.83007812 35.30664062 C-80.88667482 35.19916481 -91.94331696 35.09819322 -103 35 C-103 29.06 -103 23.12 -103 17 C-100.04699951 16.97494385 -97.09399902 16.9498877 -94.05151367 16.92407227 C-84.30849953 16.84069686 -74.56553914 16.75199831 -64.82259655 16.66066074 C-58.91389535 16.60543255 -53.00518919 16.55201264 -47.09643555 16.50268555 C-41.39706864 16.45504058 -35.69776268 16.4026976 -29.9984684 16.34705925 C-27.82112452 16.32663632 -25.64376393 16.30792314 -23.46639061 16.29092598 C-20.42308876 16.26688071 -17.3799024 16.23682614 -14.33666992 16.20532227 C-13.43108337 16.1995668 -12.52549683 16.19381134 -11.59246826 16.18788147 C-10.76375717 16.17809265 -9.93504608 16.16830383 -9.08122253 16.15821838 C-8.36130221 16.15176583 -7.64138189 16.14531328 -6.89964581 16.1386652 C-4.77551179 16.0620167 -4.77551179 16.0620167 -2 15 C-1.34 10.05 -0.68 5.1 0 0 Z " fill="#000000" transform="translate(469,409)"/>
<path d="M0 0 C5.58854696 2.33216403 9.52864138 7.0804382 13.75610352 11.27563477 C15.31123897 12.8112548 16.88638496 14.32425853 18.46289062 15.83789062 C19.45183064 16.81377863 20.43950616 17.79095004 21.42578125 18.76953125 C22.77796753 20.09368042 22.77796753 20.09368042 24.1574707 21.44458008 C26 24 26 24 26.10205078 26.48193359 C24.65086899 29.79772647 22.4989348 32.03675805 19.94140625 34.51953125 C19.43705551 35.02296555 18.93270477 35.52639984 18.41307068 36.04508972 C17.34935581 37.10278126 16.28080276 38.15562662 15.20776367 39.20385742 C13.56102342 40.81394371 11.93099491 42.43960803 10.30273438 44.06835938 C9.26656641 45.09470129 8.22948795 46.12012499 7.19140625 47.14453125 C6.70176895 47.6319429 6.21213165 48.11935455 5.70765686 48.62153625 C2.23217661 52 2.23217661 52 0 52 C-0.04898438 51.16855469 -0.09796875 50.33710938 -0.1484375 49.48046875 C-0.22320312 48.39378906 -0.29796875 47.30710937 -0.375 46.1875 C-0.47941406 44.56908203 -0.47941406 44.56908203 -0.5859375 42.91796875 C-0.81195733 39.81373814 -0.81195733 39.81373814 -3 37 C-5.70766135 36.01735857 -8.26258765 35.86801294 -11.12554932 35.84178162 C-12.34543549 35.82709839 -12.34543549 35.82709839 -13.58996582 35.81211853 C-14.47325562 35.80636307 -15.35654541 35.8006076 -16.26660156 35.79467773 C-17.20352844 35.78477814 -18.14045532 35.77487854 -19.10577393 35.76467896 C-22.20069863 35.73310746 -25.29563869 35.70832365 -28.390625 35.68359375 C-30.53725583 35.66302047 -32.68388265 35.6420239 -34.83050537 35.62062073 C-40.47917425 35.56543869 -46.12787946 35.51601231 -51.77661133 35.46777344 C-57.54121126 35.41753021 -63.30575846 35.36185886 -69.0703125 35.30664062 C-80.38016496 35.19910632 -91.69006223 35.09815243 -103 35 C-103 29.06 -103 23.12 -103 17 C-98.63164917 16.99383667 -98.63164917 16.99383667 -94.17504883 16.98754883 C-84.55568014 16.97035557 -74.93657753 16.92586092 -65.31737232 16.86790943 C-59.4848853 16.83361093 -53.65266101 16.80852495 -47.82006836 16.80444336 C-42.19179989 16.80016663 -36.5641244 16.77175521 -30.93604088 16.72656822 C-28.78828064 16.7135733 -26.64044952 16.70929256 -24.4926548 16.71384621 C-21.48509221 16.71873786 -18.47927229 16.69272259 -15.47192383 16.65942383 C-14.58287857 16.66804947 -13.69383331 16.67667511 -12.77784729 16.68556213 C-8.36363737 16.60357145 -6.54912215 16.4252555 -2.95219421 13.63969421 C-0.71269903 10.61152088 -0.32225862 8.91582189 -0.1875 5.1875 C-0.13980469 4.21167969 -0.09210938 3.23585937 -0.04296875 2.23046875 C-0.02878906 1.49441406 -0.01460938 0.75835937 0 0 Z " fill="#000000" transform="translate(469,230)"/>
</svg>
