<?xml version="1.0" encoding="UTF-8"?>
<svg version="1.1" xmlns="http://www.w3.org/2000/svg" width="512" height="512">
<path d="M0 0 C1.24107539 -0.01090081 1.24107539 -0.01090081 2.50722301 -0.02202183 C5.27413753 -0.04024041 8.0396604 -0.02293164 10.80656433 -0.00571251 C12.81242741 -0.01147494 14.8182852 -0.01941687 16.82413197 -0.02934873 C22.33192089 -0.0502284 27.83927684 -0.03990155 33.34706736 -0.02441764 C39.28854213 -0.01311277 45.22994204 -0.03056259 51.17140198 -0.04431725 C62.13645628 -0.06527758 73.10138185 -0.06344447 84.06644115 -0.0497599 C94.19627117 -0.03717986 104.32605061 -0.03389966 114.45588684 -0.03987312 C115.12794046 -0.04025505 115.79999408 -0.04063697 116.49241296 -0.04103047 C119.22052894 -0.04258718 121.94864489 -0.04417918 124.67676081 -0.04582929 C150.26622558 -0.06112275 175.85560245 -0.04725947 201.44505365 -0.02034481 C224.17750209 0.00338308 246.90981048 0.00125994 269.64225769 -0.02264977 C295.18504707 -0.04942558 320.7277588 -0.06003812 346.27056026 -0.04458845 C348.99369238 -0.04298487 351.71682452 -0.04142067 354.43995667 -0.03987312 C355.44570628 -0.03928004 355.44570628 -0.03928004 356.47177408 -0.03867498 C366.59499899 -0.0329887 376.71816775 -0.03963696 386.84138489 -0.05227089 C398.35249356 -0.06656534 409.86344489 -0.06251569 421.37453485 -0.03586717 C427.24894995 -0.02271644 433.12308067 -0.01759834 438.99749374 -0.03411293 C444.37388788 -0.04899898 449.7497337 -0.0408459 455.12607801 -0.01422517 C457.07212703 -0.00863458 459.01822226 -0.01149355 460.96424162 -0.02360411 C463.60876834 -0.03880069 466.25141495 -0.02322696 468.89584351 0 C469.6522525 -0.01170583 470.4086615 -0.02341166 471.18799198 -0.03547221 C476.98273118 0.06632305 480.95108773 2.0047293 485.44792175 5.6292057 C491.74743706 12.26569474 491.15153668 19.92828498 491.07611084 28.62873268 C491.08115966 30.16095765 491.08839108 31.69317671 491.09760898 33.22538227 C491.11651054 37.42397655 491.1043096 41.62198713 491.08688605 45.82056653 C491.07350392 50.35301222 491.08895212 54.88537297 491.10070801 59.41781044 C491.1190822 68.29187397 491.11057394 77.16571723 491.09261978 86.03977389 C491.07859214 93.25159125 491.07470134 100.46334883 491.07806206 107.67517853 C491.07877822 109.21500959 491.07877822 109.21500959 491.07950885 110.78594835 C491.08053518 112.87138297 491.08159054 114.95681758 491.08267462 117.04225218 C491.09124112 135.48037906 491.07456779 153.91839962 491.04484558 172.35650063 C491.01600412 190.24847313 491.0089267 208.14029249 491.02433777 226.03228188 C491.04109726 245.51645237 491.04513702 265.00055017 491.02762741 284.48472255 C491.02578302 286.56216458 491.02394829 288.63960661 491.02212334 290.71704865 C491.02121125 291.73918867 491.02029916 292.76132869 491.01935943 293.81444265 C491.0137528 301.01828424 491.01706236 308.22209035 491.02366829 315.42593002 C491.0313982 324.20394514 491.02466108 332.98180947 490.99949325 341.75979418 C490.98699076 346.23865661 490.98086079 350.71728419 490.99203491 355.19615555 C491.00207107 359.29629815 490.99363122 363.3959723 490.97045373 367.49605786 C490.96529183 368.97910189 490.96686103 370.46218784 490.97584838 371.94521362 C491.05243693 385.73022725 491.05243693 385.73022725 486.44792175 391.6292057 C480.3176007 397.75952676 475.00208629 398.73480236 466.639328 398.8245182 C464.09628556 398.81130759 461.5532795 398.78757991 459.01042175 398.7542057 C457.70653503 398.74518227 456.40264832 398.73615883 455.05924988 398.72686195 C451.85528344 398.70338967 448.65169911 398.67055297 445.44792175 398.6292057 C445.45902481 399.45304253 445.47012787 400.27687935 445.48156738 401.12568092 C445.58195763 408.90828816 445.65798144 416.6905793 445.70698261 424.47366619 C445.7330222 428.47460665 445.76831513 432.47500992 445.82511902 436.47564125 C445.87964303 440.34010434 445.90938467 444.20405235 445.92230797 448.06887054 C445.93151159 449.53965229 445.94948454 451.01040739 445.97657204 452.48096848 C446.20543172 465.42623433 446.20543172 465.42623433 443.35490417 469.90044594 C436.80628942 476.04757511 430.86800026 476.07907084 422.2565155 476.0276432 C420.66130821 476.03194847 420.66130821 476.03194847 419.03387451 476.03634071 C416.79403651 476.0383752 414.55418049 476.03288857 412.31437683 476.02031898 C408.89299213 476.00424128 405.47278585 476.02019749 402.05143738 476.03936195 C399.86979416 476.03737972 397.68815167 476.03353647 395.5065155 476.0276432 C394.48762741 476.0337159 393.46873932 476.03978859 392.41897583 476.0460453 C387.10054301 475.99354504 382.87748455 475.91206408 378.44792175 472.6292057 C375.44792175 466.6292057 375.44792175 466.6292057 375.44792175 448.6292057 C353.66792175 448.6292057 331.88792175 448.6292057 309.44792175 448.6292057 C309.44792175 453.9092057 309.44792175 459.1892057 309.44792175 464.6292057 C305.76545135 473.22163663 305.76545135 473.22163663 300.44792175 475.6292057 C296.6689538 476.17602389 292.94836406 476.16633265 289.13542175 476.12529945 C288.04833923 476.12675468 286.96125671 476.12820992 285.8412323 476.12970924 C283.5483176 476.12805305 281.25539146 476.11652325 278.96257019 476.09575844 C275.45980947 476.06680397 271.95856324 476.07515653 268.45573425 476.08819008 C266.22395609 476.0819522 263.99218269 476.07356088 261.76042175 476.06279945 C260.19457336 476.06720291 260.19457336 476.06720291 258.59709167 476.07169533 C252.37187991 475.99122224 247.60844778 475.51196578 242.8033905 471.1292057 C239.05886904 466.32018817 238.32277571 463.32971102 238.33439636 457.32183266 C238.33447189 456.02071037 238.33454742 454.71958809 238.33462524 453.37903786 C238.3397319 451.9585205 238.3449479 450.53800354 238.3502655 449.11748695 C238.35213084 447.66445909 238.3535542 446.21143059 238.35455322 444.75840187 C238.35836929 440.93614398 238.36819182 437.11392415 238.3792572 433.29168129 C238.39129051 428.70448786 238.3958779 424.11728169 238.40171051 419.53007698 C238.41140405 412.56309342 238.43056695 405.59619337 238.44792175 398.6292057 C227.22792175 398.6292057 216.00792175 398.6292057 204.44792175 398.6292057 C204.77792175 399.6192057 205.10792175 400.6092057 205.44792175 401.6292057 C207.5686015 426.93277091 201.10119969 450.6851377 185.1627655 470.4651432 C179.050766 477.49782503 179.050766 477.49782503 173.63542175 477.9417057 C169.38443769 477.92633144 167.65390123 476.38991025 164.44792175 473.6292057 C160.75041367 473.93088523 158.77816699 475.86287971 156.07292175 478.2542057 C137.88578805 493.15643861 116.10792053 495.9398354 93.44792175 494.6292057 C73.89745643 492.4661252 53.97606237 480.52030523 41.44792175 465.6292057 C35.72767066 457.93596478 30.79907725 449.62311568 27.44792175 440.6292057 C27.05604675 439.60569008 26.66417175 438.58217445 26.26042175 437.5276432 C22.24443534 425.17290722 23.06854092 412.47124706 23.44792175 399.6292057 C22.64161316 399.61462318 21.83530457 399.60004066 21.00456238 399.58501625 C17.31855553 399.51012108 13.63341338 399.41359611 9.94792175 399.3167057 C8.67948425 399.29414711 7.41104675 399.27158852 6.10417175 399.24834633 C-3.83941494 398.963504 -11.31917943 397.86210452 -18.55207825 390.6292057 C-22.12435411 385.18975282 -21.97755197 380.27159183 -21.9397583 373.9880619 C-21.94514384 372.9158669 -21.95052938 371.8436719 -21.95607811 370.73898613 C-21.97038615 367.14612358 -21.9632468 363.55362797 -21.95613098 359.96074867 C-21.96183293 357.38510275 -21.9687965 354.80945936 -21.97692871 352.23381996 C-21.99411369 345.9647391 -21.99495762 339.69575847 -21.98971581 333.42666017 C-21.98567345 328.33243328 -21.98711842 323.23823601 -21.99246407 318.14401054 C-21.99321249 317.41883373 -21.99396091 316.69365692 -21.99473201 315.94650505 C-21.99626348 314.47332317 -21.99780183 313.0001413 -21.99934698 311.52695943 C-22.01307012 297.71692479 -22.00763492 283.90694682 -21.99616177 270.09691347 C-21.98622248 257.45788169 -21.99918234 244.81899616 -22.02309596 232.17998694 C-22.04746481 219.20270002 -22.05710074 206.22548128 -22.05044323 193.24817193 C-22.04694698 185.96209338 -22.0492101 178.67612742 -22.06669426 171.39006615 C-22.08292141 164.54296462 -22.07826936 157.69614787 -22.05938911 150.84905434 C-22.05568831 148.33191547 -22.05885473 145.81475606 -22.0692749 143.29763603 C-22.08238371 139.87022339 -22.07102654 136.44375341 -22.05328369 133.01638222 C-22.0628887 132.01269785 -22.0724937 131.00901348 -22.08238977 129.97491443 C-22.01085662 123.29183094 -22.01085662 123.29183094 -19.73950291 120.01125717 C-16.50628144 117.9684538 -14.29119439 118.09504625 -10.55207825 118.6292057 C-7.35448729 120.98532536 -6.27920046 122.81044538 -5.55207825 126.6292057 C-5.46086973 128.11345893 -5.41854584 129.601165 -5.41341305 131.08820915 C-5.4079386 131.98095582 -5.40246416 132.87370249 -5.39682382 133.79350209 C-5.39584572 134.77015159 -5.39486761 135.7468011 -5.39385986 136.75304604 C-5.3864529 138.31400603 -5.3864529 138.31400603 -5.3788963 139.90650058 C-5.36350053 143.40423659 -5.35515501 146.90195422 -5.34675598 150.39971352 C-5.3371791 152.90273641 -5.32716913 155.40575768 -5.3167572 157.90877724 C-5.29529519 163.30314282 -5.27685488 168.69750584 -5.26115227 174.09189034 C-5.2384437 181.89127184 -5.21030224 189.69062629 -5.18083299 197.48998484 C-5.13316919 210.14380172 -5.08990171 222.79762967 -5.0493927 235.45147133 C-5.01003161 247.7437978 -4.96860391 260.03611443 -4.9243927 272.32842445 C-4.92166843 273.08607044 -4.91894416 273.84371642 -4.91613733 274.62432137 C-4.90245775 278.42519305 -4.8887375 282.22606459 -4.87499702 286.02693605 C-4.76105127 317.56100565 -4.65431085 349.09509586 -4.55207825 380.6292057 C-1.57848375 382.11600295 1.11091354 381.74033175 4.42448425 381.72686195 C5.10973175 381.72544701 5.79497925 381.72403206 6.50099182 381.72257423 C8.69167936 381.71697245 10.88226505 381.70441976 13.07292175 381.6917057 C14.55729528 381.68669093 16.0416704 381.68212798 17.52604675 381.67803383 C21.16670491 381.66700248 24.80730339 381.64973669 28.44792175 381.6292057 C28.91327332 380.64694008 29.37862488 379.66467445 29.858078 378.6526432 C33.38721016 371.26065481 37.09097606 364.88107644 42.44792175 358.6292057 C43.09954285 357.7629557 43.09954285 357.7629557 43.764328 356.8792057 C55.64470173 341.55884317 75.15840991 333.15358647 93.78385925 330.07842445 C115.73300693 327.38743087 137.57401576 332.42300765 155.44792175 345.6292057 C158.20249408 347.87497168 160.86201574 350.19148915 163.44792175 352.6292057 C164.43792175 351.8248307 165.42792175 351.0204557 166.44792175 350.1917057 C170.53780424 347.28573657 173.42891465 346.6292057 178.44792175 346.6292057 C186.37482158 349.33595199 190.95120891 359.1780238 194.76042175 366.1292057 C195.26666077 367.03557777 195.26666077 367.03557777 195.78312683 367.96026039 C198.4508592 373.00298282 199.13118059 376.70387046 200.44792175 382.6292057 C212.98792175 382.6292057 225.52792175 382.6292057 238.44792175 382.6292057 C238.42697449 378.30891273 238.40602722 373.98861977 238.38444519 369.53740883 C238.31817055 355.26427826 238.27378053 340.99114163 238.24067307 326.71789742 C238.22006532 318.06390466 238.19197903 309.41005788 238.14616394 300.75615883 C238.10624128 293.21165794 238.08047594 285.6672628 238.07156777 278.12265921 C238.06636218 274.12939262 238.05416477 270.1364285 238.02500153 266.14325905 C237.99774637 262.38068563 237.98949694 258.61853778 237.99549103 254.85587502 C237.99387486 252.82485957 237.97240511 250.79388992 237.95024109 248.76299477 C238.01052791 235.35811998 238.01052791 235.35811998 242.44792175 230.6292057 C247.45163561 227.17841586 251.20250736 226.04332597 257.31060791 226.12127113 C258.07189623 226.11503117 258.83318455 226.10879121 259.61754221 226.10236216 C262.15255021 226.0864869 264.68658933 226.09901429 267.22160339 226.11162758 C269.04539549 226.10620406 270.8691832 226.0990801 272.69296265 226.09038734 C277.63505179 226.07217975 282.57680625 226.07921062 287.51890111 226.09190369 C292.69442335 226.10204307 297.86991728 226.09263554 303.04544067 226.08635902 C311.73507321 226.07908602 320.42456966 226.08866194 329.11418152 226.10772133 C339.15778535 226.12949622 349.20106445 226.12243278 359.24466044 226.10041571 C367.87245304 226.08226004 376.50014793 226.07970401 385.12795347 226.09017038 C390.27904199 226.0964035 395.4299779 226.09724575 400.58105659 226.08402443 C405.42307925 226.07246393 410.26468337 226.08049539 415.10666084 226.10360146 C416.88279017 226.10888717 418.65895477 226.10737711 420.43507004 226.0985508 C422.86126075 226.08760614 425.28611359 226.10134453 427.71221924 226.12127113 C428.41368373 226.11234825 429.11514823 226.10342536 429.83786923 226.09423208 C434.81154206 226.17337333 437.60068853 227.54580471 441.44792175 230.6292057 C445.86811387 235.64063664 446.02865231 239.78117798 445.98136902 246.15117836 C445.98998459 247.09172569 445.99860016 248.03227303 446.00747681 249.00132179 C446.03011317 252.09892 446.02340377 255.19561212 446.014328 258.2932682 C446.01956343 260.44987698 446.02583961 262.60648345 446.03311157 264.76308632 C446.04351059 269.27716303 446.0389595 273.79092438 446.02433777 278.30498695 C446.00712326 284.09364636 446.03068133 289.88131567 446.06582737 295.66986465 C446.08776662 300.12053458 446.08636874 304.57096613 446.07806206 309.0216732 C446.07724117 311.15635072 446.08413072 313.29104549 446.09883308 315.42567253 C446.11622084 318.406413 446.10178579 321.38535463 446.07902527 324.36602211 C446.09071747 325.24923637 446.10240967 326.13245064 446.11445618 327.04242897 C446.0219129 332.98821478 446.0219129 332.98821478 443.13504028 336.21206093 C439.46680043 338.14663392 437.38921341 337.72400894 433.44792175 336.6292057 C430.40124623 334.49653284 430.40377957 333.45263696 429.44792175 329.6292057 C429.44792175 300.9192057 429.44792175 272.2092057 429.44792175 242.6292057 C371.69792175 242.6292057 313.94792175 242.6292057 254.44792175 242.6292057 C254.44792175 314.2392057 254.44792175 385.8492057 254.44792175 459.6292057 C267.31792175 459.6292057 280.18792175 459.6292057 293.44792175 459.6292057 C293.2511299 453.31632281 293.2511299 453.31632281 292.9974823 447.00567055 C292.92848201 442.60122608 292.99056623 439.54764321 295.842453 436.0432682 C299.94675966 432.24047733 302.94027692 432.47093315 308.30656433 432.45220375 C309.11812485 432.44563255 309.92968536 432.43906136 310.76583862 432.43229103 C313.4580443 432.41254139 316.15019417 432.40089183 318.842453 432.39092445 C319.76111334 432.38684893 320.67977367 432.3827734 321.6262722 432.37857437 C326.48845064 432.35770665 331.35060078 432.34340791 336.21281433 432.33403969 C341.23679901 432.32297297 346.26034105 432.28857212 351.2841692 432.24886799 C355.14549589 432.22273171 359.00671664 432.21435052 362.86812401 432.21075821 C364.72009458 432.20588461 366.57206018 432.19424864 368.42394447 432.17572021 C371.01668565 432.15139172 373.60827539 432.15228203 376.20109558 432.159235 C377.34761093 432.14001991 377.34761093 432.14001991 378.51728821 432.12041664 C382.11058125 432.15552097 384.25333529 432.50941649 387.33834839 434.40857887 C394.56298709 442.01354148 391.44792175 447.41187783 391.44792175 459.6292057 C403.98792175 459.6292057 416.52792175 459.6292057 429.44792175 459.6292057 C429.4322113 456.7525016 429.41650085 453.8757975 429.40031433 450.91192055 C429.3505924 441.4044947 429.3174623 431.89706308 429.29248524 422.38954163 C429.2768332 416.62544689 429.25560307 410.86148545 429.22160339 405.09746742 C429.1889939 399.5342789 429.17106526 393.97121854 429.16329002 388.40794182 C429.15774941 386.28607224 429.14692996 384.16420962 429.13073158 382.04239464 C429.10893647 379.06906189 429.10595574 376.09625791 429.10734558 373.12285805 C429.09116684 371.80870918 429.09116684 371.80870918 429.07466125 370.46801186 C429.10001706 365.45090525 429.63138512 361.96566611 432.44792175 357.6292057 C435.53965927 356.08333695 438.04221728 356.33561049 441.44792175 356.6292057 C443.65885925 357.94561195 443.65885925 357.94561195 445.44792175 360.6292057 C445.94470034 364.38959692 445.82279089 368.09471032 445.69792175 371.8792057 C445.67987488 372.9104557 445.661828 373.9417057 445.64323425 375.0042057 C445.59614887 377.54681634 445.53040225 380.08753732 445.44792175 382.6292057 C449.73986321 382.49082774 454.03139104 382.34224631 458.32292175 382.1917057 C459.54624207 382.1523893 460.76956238 382.11307289 462.029953 382.07256508 C463.19655457 382.03067055 464.36315613 381.98877602 465.56510925 381.94561195 C466.64389343 381.90895424 467.72267761 381.87229652 468.83415222 381.83452797 C471.42861711 381.79543928 471.42861711 381.79543928 473.44792175 380.6292057 C473.77792175 279.6492057 474.10792175 178.6692057 474.44792175 74.6292057 C316.04792175 74.6292057 157.64792175 74.6292057 -5.55207825 74.6292057 C-5.55207825 80.2392057 -5.55207825 85.8492057 -5.55207825 91.6292057 C-8.07556818 97.93793054 -8.07556818 97.93793054 -11.55207825 99.6292057 C-14.85829504 99.5131981 -17.40712766 99.35531155 -20.24067688 97.55832863 C-22.28548414 94.55033682 -21.98585405 91.40256526 -21.97200012 87.88823891 C-21.98046967 87.10085838 -21.98893921 86.31347786 -21.99766541 85.50223732 C-22.02109543 82.89465684 -22.02205575 80.28766484 -22.02082825 77.67998695 C-22.02792915 75.86497702 -22.03562805 74.04996934 -22.04389954 72.23496437 C-22.05736023 68.42596647 -22.05890732 64.61717584 -22.05305481 60.80816078 C-22.04717468 55.94012081 -22.07767237 51.07308369 -22.11817169 46.20523739 C-22.1441034 42.45354851 -22.14692083 38.70209879 -22.14328003 34.95033264 C-22.14496796 33.15666826 -22.15457889 31.36299244 -22.17242432 29.56941605 C-22.32752978 12.04376761 -22.32752978 12.04376761 -18.1888606 7.23875978 C-12.74467616 1.88514068 -7.529994 -0.11653065 0 0 Z M-5.55207825 17.6292057 C-5.55207825 31.1592057 -5.55207825 44.6892057 -5.55207825 58.6292057 C152.84792175 58.6292057 311.24792175 58.6292057 474.44792175 58.6292057 C474.44792175 45.0992057 474.44792175 31.5692057 474.44792175 17.6292057 C472.71651737 15.89780132 470.48584966 16.50467965 468.1776073 16.49627012 C467.41364304 16.49861129 466.64967878 16.50095245 465.86256409 16.50336456 C464.65071878 16.5011844 464.65071878 16.5011844 463.41439176 16.4989602 C460.67213214 16.49527323 457.92992718 16.498799 455.18766785 16.50222206 C453.21586262 16.50107131 451.2440576 16.49948409 449.27225304 16.49749482 C443.82648496 16.49329523 438.38073425 16.495395 432.93496609 16.49848104 C427.07260453 16.50073237 421.21024608 16.49725686 415.34788513 16.49450111 C403.85269958 16.49004155 392.35752054 16.49102071 380.86233473 16.49391375 C371.52455068 16.49620235 362.18676813 16.49650716 352.84898376 16.49538994 C352.18652387 16.49531355 351.52406397 16.49523717 350.84152953 16.49515847 C348.15267127 16.49484715 345.46381302 16.49452875 342.77495476 16.4941987 C317.52989434 16.49113683 292.28483748 16.49391772 267.03977761 16.4992956 C244.59053729 16.50404152 222.14130264 16.50361691 199.69206238 16.49883461 C174.49440486 16.49348482 149.29675049 16.49135394 124.09909248 16.49444687 C121.4150149 16.49476761 118.73093732 16.49508045 116.04685974 16.49538994 C115.38592773 16.49546902 114.72499573 16.49554809 114.04403548 16.49562957 C104.04493514 16.49676904 94.04583754 16.49542691 84.04673767 16.49291039 C72.68207245 16.49011321 61.31741415 16.49084889 49.95274973 16.49619113 C44.14820125 16.49882927 38.34366431 16.49983132 32.53911591 16.49654198 C27.23454973 16.4935813 21.93000591 16.49516797 16.62544179 16.50051953 C14.69747224 16.5016447 12.76950084 16.50105035 10.84153247 16.49864374 C8.23875388 16.49564183 5.63605377 16.49868206 3.03327942 16.50336456 C1.88733303 16.49985281 1.88733303 16.49985281 0.71823621 16.49627012 C-2.70534001 16.20124048 -2.70534001 16.20124048 -5.55207825 17.6292057 Z M54.13542175 369.2932682 C41.19404742 386.3033322 36.99649243 404.70088544 39.72477722 425.76690102 C42.69215801 442.1569447 53.6705552 457.23632495 66.87760925 466.96904945 C82.99518506 477.37933778 100.57883334 481.4183728 119.61198425 477.9729557 C131.13284332 475.20604131 142.01122829 470.06589916 150.44792175 461.6292057 C150.44792175 460.9692057 150.44792175 460.3092057 150.44792175 459.6292057 C148.93857072 458.08289582 148.93857072 458.08289582 146.9596405 456.48467445 C142.5918093 452.76976152 138.41916316 448.88774849 134.26042175 444.9417057 C129.07489792 440.04165473 123.88128551 435.15217055 118.63542175 430.3167057 C118.12116638 429.84225014 117.60691101 429.36779457 117.07707214 428.87896156 C114.39977753 426.41313289 111.71200796 423.95943654 109.014328 421.51592445 C108.17961975 420.75759315 108.17961975 420.75759315 107.32804871 419.98394203 C106.26778463 419.02149474 105.20523764 418.06155439 104.14006042 417.1045475 C99.99289885 413.33782039 99.33811456 411.42472369 98.92448425 405.79717445 C100.33855707 399.94038031 107.96636846 395.73547741 112.57292175 392.1917057 C113.35336853 391.58769936 114.13381531 390.98369301 114.93791199 390.36138344 C121.49085642 385.31337774 128.13009416 380.38571392 134.81364441 375.51226234 C140.10473487 371.65014829 145.29782767 367.67739092 150.44792175 363.6292057 C140.24573405 352.06672631 124.20407562 346.55097893 109.2096405 345.37529945 C88.21587135 344.63825886 67.96250218 353.36409785 54.13542175 369.2932682 Z M169.983078 368.1995182 C169.27546326 368.75897133 168.56784851 369.31842445 167.83879089 369.8948307 C167.07042908 370.50842445 166.30206726 371.1220182 165.51042175 371.7542057 C156.78305196 378.63430416 147.89360858 385.26019936 138.92253113 391.81768227 C134.52698565 395.03541583 130.14460579 398.27101947 125.76042175 401.5042057 C124.15240359 402.68917584 122.54433596 403.87407885 120.936203 405.0588932 C120.26113708 405.5563102 119.58607117 406.05372719 118.89054871 406.56621742 C118.41448181 406.91700356 117.93841492 407.26778969 117.44792175 407.6292057 C118.19428894 408.37428383 118.94065613 409.11936195 119.7096405 409.8870182 C121.28014798 411.45976606 122.8473774 413.03583721 124.404953 414.6213932 C125.01725769 415.24272133 125.62956238 415.86404945 126.26042175 416.5042057 C126.86499207 417.12037758 127.46956238 417.73654945 128.092453 418.3713932 C130.08530362 420.28162149 132.11413433 422.09787812 134.19792175 423.90654945 C138.44947933 427.60184229 142.54979087 431.43977763 146.63542175 435.3167057 C152.52886348 440.88865154 158.44787364 446.42930062 164.42521667 451.91118813 C166.81451332 454.10547225 169.18085748 456.30816371 171.44792175 458.6292057 C175.77845064 457.15025276 177.36545352 454.00552246 179.44792175 450.1917057 C179.79677429 449.56352943 180.14562683 448.93535316 180.50505066 448.28814125 C190.47601504 429.91480974 192.15095432 409.59248694 186.65104675 389.54717445 C184.09717027 380.94563474 180.66040314 372.95485522 175.44792175 365.6292057 C172.79232894 365.6292057 172.04686088 366.55094847 169.983078 368.1995182 Z " fill="#000000" transform="translate(21.552078247070313,8.370794296264648)"/>
<path d="M0 0 C19.30061633 16.24550824 30.21315795 39.17983728 32.41845703 64.15625 C33.84922863 88.56654687 26.27624956 111.53705654 10.82421875 130.4921875 C5.19162724 134.91390789 -2.26605183 134.05086681 -9.02124023 134.03637695 C-10.24957581 134.04148788 -11.47791138 134.04659882 -12.74346924 134.05186462 C-16.10099655 134.06336036 -19.45827651 134.06583789 -22.81580615 134.06330132 C-25.62387747 134.06222892 -28.43192621 134.06712182 -31.23999268 134.07190675 C-37.86712505 134.08298779 -44.49420074 134.08344716 -51.12133789 134.07739258 C-57.94693961 134.07135236 -64.77233521 134.0836681 -71.59790176 134.10496265 C-77.46900982 134.12260263 -83.34005242 134.12857626 -89.21118599 134.1253249 C-92.7129703 134.12351582 -96.21460753 134.12611067 -99.71636772 134.14003944 C-103.62276108 134.15499748 -107.52889369 134.14562668 -111.43530273 134.1340332 C-112.58825333 134.14167694 -113.74120392 134.14932068 -114.92909241 134.15719604 C-121.99771763 134.11083862 -127.68864103 133.84351051 -132.9453125 128.625 C-148.92643878 105.78982393 -155.95647104 79.68237382 -151.07421875 51.78125 C-150.2464352 48.01311946 -149.09735657 44.39354366 -147.79296875 40.76171875 C-147.41914063 39.7046875 -147.0453125 38.64765625 -146.66015625 37.55859375 C-137.67776336 14.35903595 -120.7585264 -3.53760218 -98.16015625 -13.96484375 C-65.30737534 -28.30664498 -27.70002155 -22.40909887 0 0 Z M-120.10546875 22.44921875 C-133.96761235 40.97115269 -138.18602832 62.28188849 -135.52783203 85.03076172 C-133.89397777 95.13608892 -128.16543283 111.03267286 -119.79296875 117.76171875 C-117.86732013 118.17159924 -117.86732013 118.17159924 -115.78125 118.0546875 C-115.02392578 118.04501953 -114.26660156 118.03535156 -113.48632812 118.02539062 C-112.70064453 118.00025391 -111.91496094 117.97511719 -111.10546875 117.94921875 C-110.30818359 117.93568359 -109.51089844 117.92214844 -108.68945312 117.90820312 C-106.72366908 117.87288964 -104.75823293 117.81908322 -102.79296875 117.76171875 C-102.77838623 117.18317139 -102.76380371 116.60462402 -102.7487793 116.00854492 C-102.27477011 99.17368139 -101.56669646 84.38981086 -89.04296875 71.76171875 C-87.96709731 70.75369506 -86.88489326 69.75233067 -85.79296875 68.76171875 C-85.13296875 68.10171875 -84.47296875 67.44171875 -83.79296875 66.76171875 C-84.21449219 66.01148438 -84.63601562 65.26125 -85.0703125 64.48828125 C-90.03197759 55.21872341 -92.11426005 47.64389816 -89.63671875 37.27734375 C-86.70850998 28.54694353 -81.95604455 22.96392821 -73.79296875 18.76171875 C-65.53762739 15.053367 -57.27850461 15.15351068 -48.65625 17.625 C-40.83479787 20.73010582 -35.37686412 26.21746842 -31.79296875 33.76171875 C-27.75691224 43.94795662 -29.6341029 53.01722286 -33.79296875 62.76171875 C-34.46202137 64.42742905 -35.12939537 66.0938181 -35.79296875 67.76171875 C-35.28507812 68.15101563 -34.7771875 68.5403125 -34.25390625 68.94140625 C-25.58113426 75.99006363 -19.71309279 85.49350448 -18.4621582 96.734375 C-18.27885173 99.93246696 -18.17303341 103.12165386 -18.10546875 106.32421875 C-18.07130859 107.42830078 -18.03714844 108.53238281 -18.00195312 109.66992188 C-17.92022089 112.36708578 -17.85083049 115.06395518 -17.79296875 117.76171875 C-6.9282675 119.32786071 -6.9282675 119.32786071 2.78515625 115.69921875 C4.617469 112.79393006 5.93955266 109.9522683 7.20703125 106.76171875 C7.90119141 105.37919922 7.90119141 105.37919922 8.609375 103.96875 C17.93934563 85.22767855 18.16483569 65.17505618 12.17578125 45.34765625 C5.32936838 25.96490631 -8.57927606 11.59292529 -26.48046875 2.01171875 C-59.2899712 -13.53898903 -96.53917802 -4.777855 -120.10546875 22.44921875 Z M-70.53125 35.27734375 C-74.20456945 39.169835 -75.88969433 42.24836042 -75.79296875 47.76171875 C-74.85444694 52.10340224 -73.55721185 55.01707163 -70.35546875 58.13671875 C-69.50984375 58.67296875 -68.66421875 59.20921875 -67.79296875 59.76171875 C-67.17421875 60.17421875 -66.55546875 60.58671875 -65.91796875 61.01171875 C-61.61208079 62.53144391 -57.91029244 62.16395528 -53.66796875 60.63671875 C-49.38205942 57.84156049 -46.44371636 54.71396158 -44.79296875 49.76171875 C-44.23540914 43.96309882 -45.2025464 40.24140979 -48.79296875 35.76171875 C-55.78691414 29.85572042 -63.37025133 29.0335966 -70.53125 35.27734375 Z M-81.25 85.7578125 C-88.86500283 95.64767693 -86.79296875 104.68686925 -86.79296875 117.76171875 C-69.30296875 117.76171875 -51.81296875 117.76171875 -33.79296875 117.76171875 C-32.71810564 98.75975635 -32.71810564 98.75975635 -40.95703125 83.37109375 C-48.02931939 77.17155606 -55.03653385 75.99348985 -64.30078125 76.34765625 C-71.51090369 77.20254773 -76.39233781 80.43328117 -81.25 85.7578125 Z " fill="#000000" transform="translate(196.79296875,117.23828125)"/>
<path d="M0 0 C2.91667075 2.04254684 4.71639235 3.65937101 5.47183228 7.2303772 C5.67581997 10.01402778 5.71822733 12.75966097 5.70703125 15.55078125 C5.72215256 16.56472458 5.73727386 17.57866791 5.75285339 18.62333679 C5.79574883 21.85328376 5.80457047 25.08229649 5.8125 28.3125 C5.83564277 30.50588424 5.86100764 32.69924625 5.88867188 34.89257812 C5.95154211 40.26172759 5.98646183 45.63051171 6 51 C8.83424546 48.9595973 11.66722313 46.917441 14.5 44.875 C15.29148437 44.30523437 16.08296875 43.73546875 16.8984375 43.1484375 C18.48657514 42.0028956 20.07163054 40.85306841 21.65356445 39.69897461 C23.21244569 38.57024143 24.78401159 37.45881456 26.36791992 36.36547852 C27.09599854 35.85170654 27.82407715 35.33793457 28.57421875 34.80859375 C29.22737061 34.35798584 29.88052246 33.90737793 30.5534668 33.44311523 C32.42352668 31.88912958 32.42352668 31.88912958 32.3125 28.1875 C32.20808594 27.17623047 32.20808594 27.17623047 32.1015625 26.14453125 C31.84715627 20.77264577 34.30215796 16.05673223 37.1875 11.6875 C42.56320409 6.55071609 47.01613247 4.7579897 54.5 4.4375 C61.53253237 4.67354565 65.52585391 6.67729105 70.5234375 11.45703125 C75.31709519 16.7078875 76.22987482 21.82181969 76.16796875 28.65625 C76 31 76 31 75.234375 33.9140625 C74.90808897 38.21016191 76.29896358 39.64284489 79.0625 42.875 C81.9525653 46.08764782 84.22499633 47.86328398 88.609375 48.63671875 C92.28319574 48.61608741 92.28319574 48.61608741 95.80078125 48.19140625 C99.17661713 47.98943316 101.0058467 48.51134967 104 50 C104.47421387 49.60619141 104.94842773 49.21238281 105.43701172 48.80664062 C107.57886959 47.03269316 109.72681814 45.26628286 111.875 43.5 C112.99455078 42.56994141 112.99455078 42.56994141 114.13671875 41.62109375 C114.85214844 41.03457031 115.56757813 40.44804687 116.3046875 39.84375 C116.96452637 39.29912109 117.62436523 38.75449219 118.30419922 38.19335938 C120 37 120 37 122 37 C121.67 36.34 121.34 35.68 121 35 C120.26761078 27.86820993 120.62907099 21.85781395 125 16 C129.99574023 10.56879573 134.94424185 8.00559752 142.375 7.6875 C148.0901765 7.86969522 152.70847254 8.87537513 156.984375 12.83984375 C162.9473251 19.45576153 164.47323156 23.77359043 164.3125 32.734375 C163.72510725 38.87262924 161.51052919 42.41921363 157.3125 46.8125 C150.22698407 51.4916143 144.28896357 52.63359136 136 51 C135.21238281 50.7215625 134.42476562 50.443125 133.61328125 50.15625 C130.27907963 49.95689564 128.94857929 51.18370777 126.49023438 53.3203125 C125.97783203 53.79210937 125.46542969 54.26390625 124.9375 54.75 C123.90554783 55.6621375 122.87300823 56.5736109 121.83984375 57.484375 C120.90269531 58.31453125 119.96554687 59.1446875 119 60 C118.22785156 60.48597656 117.45570313 60.97195312 116.66015625 61.47265625 C114.73733035 62.93202753 114.73733035 62.93202753 114.53125 65.63671875 C114.5209375 66.64347656 114.510625 67.65023437 114.5 68.6875 C114.07757727 76.3002922 112.25433399 81.21638794 106.5625 86.375 C101.37632389 90.68277505 96.36429726 91.45901284 89.78125 91.30859375 C82.82750936 90.53704107 78.53996749 87.0826416 74.2265625 81.78125 C71.31354456 77.55088 70.74695282 74.69610352 70.8125 69.5 C70.81894531 68.3759375 70.82539063 67.251875 70.83203125 66.09375 C71 63 71 63 71.76953125 60.953125 C72.22851058 58.7470224 72.22851058 58.7470224 70.3671875 56.203125 C65.55907085 50.25365065 65.55907085 50.25365065 58.68359375 47.35546875 C55.34434648 47.38427677 55.34434648 47.38427677 52.17578125 47.80859375 C49 48 49 48 45.66015625 46.65234375 C41.49315714 45.90966621 41.07899291 46.17210443 37.7578125 48.4453125 C36.19368038 49.64644475 34.65032007 50.87494934 33.125 52.125 C27.57387988 56.59761678 22.46349936 60.62959339 15.84472656 63.38964844 C11.78676102 65.83020422 8.57484289 67.9196308 6 72 C4.93900841 77.48681587 4.98256793 82.87440048 5.0390625 88.4453125 C5.02782245 89.95453691 5.01328591 91.46374057 4.99536133 92.97290039 C4.95882408 96.6491353 4.9671496 100.32365453 5 104 C6.08586631 103.99585193 6.08586631 103.99585193 7.19366932 103.99162006 C24.79472937 103.92541418 42.39575786 103.87574575 59.99691486 103.84456348 C68.50864949 103.8290838 77.02030108 103.80797331 85.53198242 103.77368164 C92.94935145 103.74381291 100.36666035 103.72443301 107.78408784 103.71773452 C111.71286248 103.71381794 115.64146511 103.7045908 119.57018471 103.68280983 C123.26621185 103.66248446 126.9619957 103.65615811 130.65807343 103.66067696 C132.66497902 103.65945493 134.67185797 103.64329217 136.67869568 103.6267395 C137.86921539 103.63086349 139.05973511 103.63498749 140.28633118 103.63923645 C141.32334828 103.63647107 142.36036539 103.63370569 143.42880726 103.63085651 C146 104 146 104 147.79851055 105.31161022 C149.81616565 108.14691456 149.94091917 110.57331188 150 114 C147.91374661 117.42741629 146.8255689 118.72481037 143 120 C141.04750003 120.09747798 139.09181072 120.13498719 137.1368866 120.14044189 C135.91296707 120.14615204 134.68904755 120.15186218 133.42803955 120.15774536 C132.06945811 120.1589907 130.71087655 120.1601158 129.35229492 120.16113281 C127.92318087 120.16576156 126.49406805 120.17078629 125.06495667 120.17617798 C121.18055828 120.1892988 117.29617718 120.19574635 113.41176009 120.20018864 C110.9846465 120.20311995 108.55753762 120.20722488 106.13042641 120.21169281 C98.5357192 120.22536708 90.94102278 120.23503401 83.34630412 120.2388947 C74.58089774 120.24337504 65.81564733 120.26092202 57.05028838 120.2898953 C50.27396614 120.31151601 43.49768778 120.32159919 36.72133142 120.32293582 C32.67458972 120.3239836 28.62799466 120.32988549 24.58128929 120.34775543 C20.77357384 120.36424285 16.96611514 120.36638847 13.15837669 120.35761642 C11.76280021 120.3568464 10.36720989 120.36118431 8.97166824 120.37107468 C7.06250903 120.38380886 5.15324651 120.37612032 3.24406433 120.36749268 C2.17683734 120.36895924 1.10961035 120.3704258 0.01004314 120.3719368 C-3.58637774 119.92754408 -5.94077253 118.93194647 -9 117 C-11.01552635 114.17991089 -11.25302285 111.82372762 -11.26742554 108.40783691 C-11.27595551 107.4909761 -11.28448547 106.5741153 -11.29327393 105.62947083 C-11.29191437 104.131623 -11.29191437 104.131623 -11.29052734 102.60351562 C-11.29724457 101.5462175 -11.30396179 100.48891937 -11.31088257 99.39958191 C-11.32989361 95.90175693 -11.33378806 92.40412343 -11.3359375 88.90625 C-11.34236217 86.4777417 -11.34909027 84.04923419 -11.35610962 81.62072754 C-11.36808939 76.52984827 -11.37178961 71.4390369 -11.37060547 66.34814453 C-11.37040199 59.81751163 -11.39773105 53.2873125 -11.43214989 46.75678253 C-11.45435851 41.74169912 -11.4584449 36.72672119 -11.45738602 31.71159363 C-11.45975005 29.30338543 -11.4686184 26.89517468 -11.48405075 24.48701477 C-11.50359242 21.12319279 -11.49791917 17.76032085 -11.48583984 14.39648438 C-11.49707886 13.39791916 -11.50831787 12.39935394 -11.51989746 11.37052917 C-11.45850115 4.66031072 -11.45850115 4.66031072 -9.18447876 1.38537598 C-5.91002071 -0.69125466 -3.79321695 -0.59892899 0 0 Z M49 23.1875 C47.69846722 25.9817703 47.69846722 25.9817703 48.8125 28.8125 C49.204375 29.534375 49.59625 30.25625 50 31 C52.31 31.33 54.62 31.66 57 32 C58.66846734 30.30504044 58.66846734 30.30504044 60 28 C59.75925978 24.62963689 59.41201979 23.41201979 57 21 C53.15136368 20.42679885 51.68881525 20.24660832 49 23.1875 Z M137 27 C137.33 29.31 137.66 31.62 138 34 C140.21776622 35.30514736 140.21776622 35.30514736 143 36 C145.91078244 35.17020292 145.91078244 35.17020292 148 33 C148.54523703 29.72857781 148.61130097 27.91695145 146.75 25.125 C142.76759429 22.56488204 140.1532531 24.29721163 137 27 Z M88.1875 65.1875 C86.57474216 67.64907776 86.5665986 69.11065736 87 72 C88.08333333 73.91666667 88.08333333 73.91666667 90 75 C92.88934264 75.4334014 94.35092224 75.42525784 96.8125 73.8125 C98.42525784 71.35092224 98.4334014 69.88934264 98 67 C96.91666667 65.08333333 96.91666667 65.08333333 95 64 C92.11065736 63.5665986 90.64907776 63.57474216 88.1875 65.1875 Z " fill="#000000" transform="translate(288,96)"/>
<path d="M0 0 C1.81565208 -0.00810448 1.81565208 -0.00810448 3.66798401 -0.01637268 C6.97614187 -0.02671562 10.28329471 -0.01918311 13.59136391 -0.00266147 C17.05989579 0.01122834 20.52839856 0.00472449 23.99694824 0.00120544 C29.8208046 -0.00149359 35.6444545 0.01195232 41.46826172 0.03515625 C48.19279578 0.06176422 54.91698474 0.06351203 61.6415534 0.05176789 C68.12143697 0.04097298 74.60119622 0.04719056 81.08106995 0.06132317 C83.83373468 0.06706817 86.58630798 0.06701204 89.338974 0.06225777 C93.18574996 0.05658102 97.03218336 0.07584506 100.87890625 0.09765625 C102.01675064 0.0931546 103.15459503 0.08865295 104.32691956 0.08401489 C109.92013447 0.13670803 114.15608546 0.24773209 118.93945312 3.50170898 C122.69362653 7.78758722 122.39170617 12.33113549 122.37304688 17.74780273 C122.37828873 18.6365358 122.38353058 19.52526886 122.38893127 20.44093323 C122.39533994 22.3160803 122.39402945 24.19126763 122.38549805 26.06640625 C122.37699113 28.92643245 122.40575966 31.78445818 122.4375 34.64428711 C122.43911233 36.47045839 122.43853387 38.29663319 122.43554688 40.12280273 C122.44678085 40.9729747 122.45801483 41.82314667 122.46958923 42.69908142 C122.40655696 48.10304186 121.56339847 51.23527543 117.93945312 55.50170898 C114.62429196 57.71181643 113.61070698 57.75393228 109.75296021 57.7624054 C108.67905029 57.7694902 107.60514038 57.77657501 106.49868774 57.78387451 C105.32043427 57.78139709 104.14218079 57.77891968 102.92822266 57.77636719 C101.06692719 57.78403358 101.06692719 57.78403358 99.16802979 57.79185486 C95.76294145 57.80338685 92.35809626 57.80582217 88.95300531 57.80329156 C86.11010146 57.8022224 83.2672201 57.8071039 80.42432106 57.81189698 C73.71629461 57.82299668 67.00832416 57.82342731 60.30029297 57.81738281 C53.38212502 57.81134473 46.46416054 57.82364863 39.5460273 57.84495288 C33.60537263 57.86257376 27.66478269 57.86856939 21.72410285 57.86531514 C18.17650757 57.86350254 14.62905736 57.86613574 11.08148575 57.88002968 C7.12406699 57.89494827 3.16690682 57.88563356 -0.79052734 57.87402344 C-1.96473236 57.88166718 -3.13893738 57.88931091 -4.34872437 57.89718628 C-5.42827393 57.89017197 -6.50782349 57.88315765 -7.62008667 57.87593079 C-8.55549726 57.87609853 -9.49090786 57.87626627 -10.45466423 57.87643909 C-13.61759951 57.42160392 -15.48304948 56.36462471 -18.06054688 54.50170898 C-21.32904111 49.66637307 -21.50273339 45.44368464 -21.45898438 39.81420898 C-21.46185455 38.993479 -21.46472473 38.17274902 -21.46768188 37.32714844 C-21.46971511 35.59919542 -21.46423732 33.87121899 -21.45166016 32.14331055 C-21.43559528 29.50964529 -21.45153345 26.87751444 -21.47070312 24.24389648 C-21.46872056 22.55899729 -21.46487661 20.87409904 -21.45898438 19.18920898 C-21.46505707 18.40779541 -21.47112976 17.62638184 -21.47738647 16.82128906 C-21.41599773 12.011131 -20.85363718 8.58851095 -18.06054688 4.50170898 C-12.55490929 -0.48173495 -7.17227419 -0.06094095 0 0 Z M-5.06054688 16.50170898 C-5.06054688 24.75170898 -5.06054688 33.00170898 -5.06054688 41.50170898 C31.56945312 41.50170898 68.19945312 41.50170898 105.93945312 41.50170898 C105.93945312 33.25170898 105.93945312 25.00170898 105.93945312 16.50170898 C69.30945313 16.50170898 32.67945312 16.50170898 -5.06054688 16.50170898 Z " fill="#000000" transform="translate(86.060546875,267.498291015625)"/>
<path d="M0 0 C1.65473186 -0.00935994 1.65473186 -0.00935994 3.34289265 -0.01890898 C7.05262206 -0.03490933 10.76170084 -0.02220662 14.47143555 -0.00964355 C17.1256198 -0.01506154 19.77975868 -0.0220372 22.43392944 -0.03088379 C28.90250828 -0.04868549 35.37090164 -0.04482177 41.83948779 -0.03323323 C47.09585771 -0.02420563 52.35217558 -0.02297197 57.60855103 -0.02732849 C58.73002705 -0.02824789 58.73002705 -0.02824789 59.87415916 -0.02918586 C61.39292011 -0.03046474 62.91168105 -0.03176159 64.43044198 -0.03307623 C78.67732237 -0.04448685 92.92409988 -0.03136079 107.17096341 -0.00987476 C119.39975305 0.00799668 131.62839083 0.00489271 143.85717773 -0.0135498 C158.05250519 -0.03494803 172.24774243 -0.04338817 186.44308376 -0.03110075 C187.95630835 -0.02982653 189.46953295 -0.02856905 190.98275757 -0.02732849 C191.72732454 -0.02671139 192.47189151 -0.02609429 193.23902112 -0.02545848 C198.49006806 -0.02200243 203.74105786 -0.02783941 208.99209595 -0.0372467 C215.38998533 -0.04845646 221.78767837 -0.0454484 228.18554521 -0.02412373 C231.45092735 -0.01359921 234.71591363 -0.01166205 237.98130417 -0.02272034 C241.51830252 -0.0335968 245.05437009 -0.02000659 248.59130859 0 C249.62748479 -0.00892289 250.66366098 -0.01784577 251.73123646 -0.02703905 C258.66229934 0.04938458 258.66229934 0.04938458 261.92927551 2.41468048 C263.39322681 4.65741294 263.86334842 5.84854404 263.8581543 8.50793457 C263.88006836 9.16793457 263.90198242 9.82793457 263.92456055 10.50793457 C262.88591816 13.81094639 261.24196096 14.71427495 258.2956543 16.50793457 C254.71778493 17.10599253 251.17419837 17.04739258 247.55371094 17.01586914 C245.91100645 17.02522908 245.91100645 17.02522908 244.235116 17.03477812 C240.55846309 17.05075726 236.88246861 17.03808398 233.20581055 17.0255127 C230.57282117 17.03093159 227.93983483 17.03805294 225.30685425 17.04675293 C218.89355601 17.06454352 212.48044497 17.06069585 206.06713939 17.04910237 C200.85513824 17.04007041 195.64318958 17.03884301 190.43118286 17.04319763 C189.31866924 17.04411703 189.31866924 17.04411703 188.18368059 17.045055 C186.6770009 17.0463339 185.17032123 17.04763075 183.66364157 17.04894537 C169.53404178 17.06035274 155.40454579 17.04723503 141.27496302 17.0257439 C129.14997219 17.00787275 117.02513455 17.01097681 104.90014648 17.02941895 C90.82126436 17.05082291 76.74247321 17.05925409 62.66357708 17.04696989 C61.16242664 17.04569569 59.6612762 17.04443821 58.16012573 17.04319763 C57.42152268 17.04258053 56.68291963 17.04196343 55.92193466 17.04132763 C50.71592943 17.0378733 45.50998189 17.04370484 40.3039856 17.05311584 C33.29765359 17.06550289 26.29161605 17.0566893 19.28531265 17.03353882 C16.71054695 17.02823975 14.13575693 17.02978583 11.56100082 17.03858948 C8.05286791 17.04948062 4.54567056 17.03585774 1.03759766 17.01586914 C0.01279832 17.02479203 -1.01200102 17.03371491 -2.06785488 17.04290819 C-6.48158247 16.99395192 -9.00248327 16.93521606 -12.83641052 14.60118866 C-14.85333133 12.34097762 -15.36587569 11.49048468 -15.2668457 8.50793457 C-15.26813477 7.84793457 -15.26942383 7.18793457 -15.27075195 6.50793457 C-13.14007849 -1.01554689 -6.43577074 -0.05542074 0 0 Z " fill="#000000" transform="translate(57.704345703125,37.4920654296875)"/>
<path d="M0 0 C0.83686844 -0.0071553 1.67373688 -0.01431061 2.53596497 -0.02168274 C3.45082672 -0.02437164 4.36568848 -0.02706055 5.30827332 -0.02983093 C6.27443069 -0.03640213 7.24058807 -0.04297333 8.23602295 -0.04974365 C11.43743465 -0.0694753 14.63879946 -0.08113837 17.84025574 -0.09111023 C19.4797799 -0.09722352 19.4797799 -0.09722352 21.15242577 -0.10346031 C26.93646938 -0.12431946 32.72048928 -0.13862245 38.50456238 -0.147995 C44.48011931 -0.15906517 50.45530445 -0.19347283 56.43072987 -0.23316669 C61.02468563 -0.25930242 65.61855234 -0.26768409 70.21257591 -0.27127647 C72.41539206 -0.27614949 74.61820405 -0.28778371 76.82094765 -0.30631447 C79.90426304 -0.33064284 82.98661022 -0.32975226 86.06999207 -0.32279968 C86.97878113 -0.33560974 87.88757019 -0.3484198 88.82389832 -0.36161804 C94.33065364 -0.31638364 97.54666642 0.42103214 101.88322449 4.14717102 C104.49183604 8.06008835 104.22532321 11.43400791 104.25431824 15.97920227 C104.26334671 16.84856918 104.27237518 17.7179361 104.28167725 18.61364746 C104.29618457 20.45364436 104.30506768 22.2936929 104.3087616 24.13374329 C104.32063801 26.93924268 104.36979938 29.74252784 104.42033386 32.54756165 C104.42980075 34.33726448 104.43703452 36.12698079 104.44181824 37.91670227 C104.46135056 38.75127457 104.48088287 39.58584686 104.50100708 40.44570923 C104.46897823 44.61256438 104.17124019 47.33506192 101.53581238 50.66157532 C98.25061117 53.73995852 96.0566403 54.27008204 91.72175598 54.28761292 C90.87502823 54.29332306 90.02830048 54.2990332 89.15591431 54.30491638 C88.23013077 54.30603424 87.30434723 54.3071521 86.35050964 54.30830383 C84.88423378 54.31575119 84.88423378 54.31575119 83.38833618 54.323349 C80.149646 54.33797249 76.91100478 54.34477264 73.67228699 54.35029602 C71.42410785 54.35604692 69.17592873 54.36180466 66.92774963 54.36756897 C62.21173372 54.37807922 57.49573485 54.38392186 52.77970886 54.3874054 C46.73462045 54.39289289 40.68975697 54.41692644 34.64473915 54.44537735 C30.00021199 54.46399305 25.35573915 54.46920875 20.71117783 54.47074127 C18.48242843 54.47377028 16.25368004 54.48180712 14.02496719 54.49492645 C10.90804629 54.51196578 7.79167687 54.51011181 4.67472839 54.50361633 C3.75299332 54.51283112 2.83125824 54.5220459 1.8815918 54.53153992 C-2.92845772 54.50011227 -6.24361942 54.33241161 -10.11677551 51.14717102 C-13.21395944 46.52169898 -13.55965226 42.28312348 -13.51521301 36.86201477 C-13.51808319 36.08330521 -13.52095337 35.30459564 -13.52391052 34.50228882 C-13.52594271 32.86429614 -13.52047224 31.22627873 -13.50788879 29.58833313 C-13.49180023 27.08851205 -13.50777642 24.59030216 -13.52693176 22.0905304 C-13.5249496 20.49352164 -13.52110649 18.89651388 -13.51521301 17.29951477 C-13.52128571 16.55668747 -13.5273584 15.81386017 -13.53361511 15.04852295 C-13.45975535 9.57334339 -12.12258475 6.48728179 -8.61677551 2.39717102 C-5.94724327 0.17256082 -3.32538297 0.01955074 0 0 Z M2.88322449 16.14717102 C2.88322449 23.40717102 2.88322449 30.66717102 2.88322449 38.14717102 C30.93322449 38.14717102 58.98322449 38.14717102 87.88322449 38.14717102 C87.88322449 30.88717102 87.88322449 23.62717102 87.88322449 16.14717102 C59.83322449 16.14717102 31.78322449 16.14717102 2.88322449 16.14717102 Z " fill="#000000" transform="translate(318.1167755126953,268.8528289794922)"/>
<path d="M0 0 C0.64764816 -0.00700928 1.29529633 -0.01401855 1.96257019 -0.02124023 C4.09723149 -0.03880413 6.23056029 -0.02720508 8.36523438 -0.01367188 C9.85209405 -0.0163673 11.33895201 -0.02025014 12.82580566 -0.02526855 C15.93954273 -0.03116136 19.05282032 -0.02260834 22.16650391 -0.00390625 C26.15489526 0.01888398 30.14220997 0.00575961 34.13056183 -0.01819611 C37.2001352 -0.03266045 40.26945393 -0.02804535 43.33903503 -0.01768494 C44.80942411 -0.01501937 46.27983642 -0.01828149 47.75019836 -0.02760315 C49.80674339 -0.03778022 51.86155281 -0.0222559 53.91796875 0 C55.08726929 0.00318237 56.25656982 0.00636475 57.46130371 0.00964355 C61.06956622 0.62103665 62.24635467 1.66025716 64.45898438 4.51757812 C65.16780741 7.42542694 64.79870226 9.46011713 64.45898438 12.51757812 C62.64735171 15.19189302 61.58137361 15.47678171 58.45898438 16.51757812 C56.44614098 16.62155165 54.43003876 16.66617113 52.41455078 16.67871094 C51.16960846 16.68831848 49.92466614 16.69792603 48.64199829 16.70782471 C47.28151635 16.71267265 45.92103228 16.71695149 44.56054688 16.72070312 C43.16433714 16.72645716 41.76812743 16.73221486 40.37191772 16.73797607 C37.44488152 16.74847661 34.5178727 16.75432551 31.59082031 16.7578125 C27.84596919 16.76329619 24.10148184 16.78732509 20.35674477 16.81578445 C17.472493 16.8344368 14.58832843 16.8396178 11.70402145 16.84114838 C10.32375474 16.84416945 8.94348936 16.8521796 7.56328201 16.86533356 C5.62966391 16.88244681 3.6958953 16.87866136 1.76220703 16.87402344 C0.11365219 16.87949188 0.11365219 16.87949188 -1.56820679 16.8850708 C-4.94280186 16.46791012 -6.82216567 15.52701482 -9.54101562 13.51757812 C-11.08688438 10.42584061 -10.83461084 7.9232826 -10.54101562 4.51757812 C-7.4699105 0.33393928 -5.05067016 0.01374592 0 0 Z " fill="#000000" transform="translate(357.541015625,342.482421875)"/>
<path d="M0 0 C0.64764816 -0.00700928 1.29529633 -0.01401855 1.96257019 -0.02124023 C4.09723149 -0.03880413 6.23056029 -0.02720508 8.36523438 -0.01367188 C9.85209405 -0.0163673 11.33895201 -0.02025014 12.82580566 -0.02526855 C15.93954273 -0.03116136 19.05282032 -0.02260834 22.16650391 -0.00390625 C26.15489526 0.01888398 30.14220997 0.00575961 34.13056183 -0.01819611 C37.2001352 -0.03266045 40.26945393 -0.02804535 43.33903503 -0.01768494 C44.80942411 -0.01501937 46.27983642 -0.01828149 47.75019836 -0.02760315 C49.80674339 -0.03778022 51.86155281 -0.0222559 53.91796875 0 C55.08726929 0.00318237 56.25656982 0.00636475 57.46130371 0.00964355 C61.06956622 0.62103665 62.24635467 1.66025716 64.45898438 4.51757812 C65.16780741 7.42542694 64.79870226 9.46011713 64.45898438 12.51757812 C62.64735171 15.19189302 61.58137361 15.47678171 58.45898438 16.51757812 C56.44614098 16.62155165 54.43003876 16.66617113 52.41455078 16.67871094 C51.16960846 16.68831848 49.92466614 16.69792603 48.64199829 16.70782471 C47.28151635 16.71267265 45.92103228 16.71695149 44.56054688 16.72070312 C43.16433714 16.72645716 41.76812743 16.73221486 40.37191772 16.73797607 C37.44488152 16.74847661 34.5178727 16.75432551 31.59082031 16.7578125 C27.84596919 16.76329619 24.10148184 16.78732509 20.35674477 16.81578445 C17.472493 16.8344368 14.58832843 16.8396178 11.70402145 16.84114838 C10.32375474 16.84416945 8.94348936 16.8521796 7.56328201 16.86533356 C5.62966391 16.88244681 3.6958953 16.87866136 1.76220703 16.87402344 C0.11365219 16.87949188 0.11365219 16.87949188 -1.56820679 16.8850708 C-4.94280186 16.46791012 -6.82216567 15.52701482 -9.54101562 13.51757812 C-11.08688438 10.42584061 -10.83461084 7.9232826 -10.54101562 4.51757812 C-7.4699105 0.33393928 -5.05067016 0.01374592 0 0 Z " fill="#000000" transform="translate(357.541015625,406.482421875)"/>
<path d="M0 0 C0.64764816 -0.00700928 1.29529633 -0.01401855 1.96257019 -0.02124023 C4.09723149 -0.03880413 6.23056029 -0.02720508 8.36523438 -0.01367188 C9.85209405 -0.0163673 11.33895201 -0.02025014 12.82580566 -0.02526855 C15.93954273 -0.03116136 19.05282032 -0.02260834 22.16650391 -0.00390625 C26.15489526 0.01888398 30.14220997 0.00575961 34.13056183 -0.01819611 C37.2001352 -0.03266045 40.26945393 -0.02804535 43.33903503 -0.01768494 C44.80942411 -0.01501937 46.27983642 -0.01828149 47.75019836 -0.02760315 C49.80674339 -0.03778022 51.86155281 -0.0222559 53.91796875 0 C55.08726929 0.00318237 56.25656982 0.00636475 57.46130371 0.00964355 C61.06956622 0.62103665 62.24635467 1.66025716 64.45898438 4.51757812 C65.16780741 7.42542694 64.79870226 9.46011713 64.45898438 12.51757812 C62.64735171 15.19189302 61.58137361 15.47678171 58.45898438 16.51757812 C56.44614098 16.62155165 54.43003876 16.66617113 52.41455078 16.67871094 C51.16960846 16.68831848 49.92466614 16.69792603 48.64199829 16.70782471 C47.28151635 16.71267265 45.92103228 16.71695149 44.56054688 16.72070312 C43.16433714 16.72645716 41.76812743 16.73221486 40.37191772 16.73797607 C37.44488152 16.74847661 34.5178727 16.75432551 31.59082031 16.7578125 C27.84596919 16.76329619 24.10148184 16.78732509 20.35674477 16.81578445 C17.472493 16.8344368 14.58832843 16.8396178 11.70402145 16.84114838 C10.32375474 16.84416945 8.94348936 16.8521796 7.56328201 16.86533356 C5.62966391 16.88244681 3.6958953 16.87866136 1.76220703 16.87402344 C0.11365219 16.87949188 0.11365219 16.87949188 -1.56820679 16.8850708 C-4.94280186 16.46791012 -6.82216567 15.52701482 -9.54101562 13.51757812 C-11.08688438 10.42584061 -10.83461084 7.9232826 -10.54101562 4.51757812 C-7.4699105 0.33393928 -5.05067016 0.01374592 0 0 Z " fill="#000000" transform="translate(357.541015625,374.482421875)"/>
<path d="M0 0 C1.50336914 -0.0299707 1.50336914 -0.0299707 3.03710938 -0.06054688 C10.32163275 -0.05568729 10.32163275 -0.05568729 13.7265625 2.2109375 C15.95063145 5.91771909 15.53819603 8.15623574 15.0625 12.4375 C13.25086733 15.11181489 12.18488923 15.39670359 9.0625 16.4375 C6.0871679 16.6615064 3.1079273 16.62264195 0.125 16.625 C-0.68646484 16.63724609 -1.49792969 16.64949219 -2.33398438 16.66210938 C-3.11966797 16.66404297 -3.90535156 16.66597656 -4.71484375 16.66796875 C-5.42890381 16.67207764 -6.14296387 16.67618652 -6.87866211 16.68041992 C-9.282476 16.39679668 -10.86963274 15.6784425 -12.9375 14.4375 C-15.03429403 11.74162197 -14.93260821 10.344556 -14.75 6.875 C-12.82296886 -1.27782406 -7.17562749 -0.05056496 0 0 Z " fill="#000000" transform="translate(319.9375,406.5625)"/>
<path d="M0 0 C1.50336914 -0.0299707 1.50336914 -0.0299707 3.03710938 -0.06054688 C10.32163275 -0.05568729 10.32163275 -0.05568729 13.7265625 2.2109375 C15.95063145 5.91771909 15.53819603 8.15623574 15.0625 12.4375 C13.25086733 15.11181489 12.18488923 15.39670359 9.0625 16.4375 C6.0871679 16.6615064 3.1079273 16.62264195 0.125 16.625 C-0.68646484 16.63724609 -1.49792969 16.64949219 -2.33398438 16.66210938 C-3.11966797 16.66404297 -3.90535156 16.66597656 -4.71484375 16.66796875 C-5.42890381 16.67207764 -6.14296387 16.67618652 -6.87866211 16.68041992 C-9.282476 16.39679668 -10.86963274 15.6784425 -12.9375 14.4375 C-15.03429403 11.74162197 -14.93260821 10.344556 -14.75 6.875 C-12.82296886 -1.27782406 -7.17562749 -0.05056496 0 0 Z " fill="#000000" transform="translate(319.9375,374.5625)"/>
<path d="M0 0 C1.50336914 -0.0299707 1.50336914 -0.0299707 3.03710938 -0.06054688 C10.32163275 -0.05568729 10.32163275 -0.05568729 13.7265625 2.2109375 C15.95063145 5.91771909 15.53819603 8.15623574 15.0625 12.4375 C13.25086733 15.11181489 12.18488923 15.39670359 9.0625 16.4375 C6.0871679 16.6615064 3.1079273 16.62264195 0.125 16.625 C-0.68646484 16.63724609 -1.49792969 16.64949219 -2.33398438 16.66210938 C-3.11966797 16.66404297 -3.90535156 16.66597656 -4.71484375 16.66796875 C-5.42890381 16.67207764 -6.14296387 16.67618652 -6.87866211 16.68041992 C-9.282476 16.39679668 -10.86963274 15.6784425 -12.9375 14.4375 C-15.03429403 11.74162197 -14.93260821 10.344556 -14.75 6.875 C-12.82296886 -1.27782406 -7.17562749 -0.05056496 0 0 Z " fill="#000000" transform="translate(319.9375,342.5625)"/>
<path d="M0 0 C0.845625 -0.00773437 1.69125 -0.01546875 2.5625 -0.0234375 C5.50634176 0.4577674 6.86941196 1.3065143 9 3.375 C9.87281149 6.80390226 10.32922829 9.26759577 9.3125 12.6875 C7.61805509 14.86607202 6.65506542 15.53655829 4 16.375 C-0.24594703 16.79435279 -4.47413351 17.08720499 -8 14.375 C-10.0815902 11.69866974 -9.99587591 10.25746332 -9.875 6.8125 C-9 3.375 -9 3.375 -7.2578125 1.68359375 C-4.62102727 0.15535318 -3.02892337 -0.02770357 0 0 Z " fill="#000000" transform="translate(403,37.625)"/>
<path d="M0 0 C2.625 1.5 2.625 1.5 4 4 C4.59392053 6.81391474 4.65009889 9.1924933 4 12 C1.89458038 14.63177453 0.41015834 15.75265368 -2.9375 16.33984375 C-7.41293088 16.55174862 -10.39547577 15.83992818 -14 13 C-15.44430855 10.11138291 -15.37688506 8.20352299 -15 5 C-11.18697044 -0.84664533 -6.44682862 -1.14151266 0 0 Z " fill="#000000" transform="translate(465,38)"/>
<path d="M0 0 C3.20458719 2.53385964 3.81817802 4.03028279 4.5625 8 C3.77376734 12.20657416 2.50811779 13.56579582 -1 16 C-5.51783149 16.93951288 -8.92844478 16.52484337 -13.0625 14.5 C-15.41849137 11.46001114 -15.69393478 9.67735812 -15.3984375 5.90625 C-15 4 -15 4 -13.6875 1.5 C-9.30501346 -0.946039 -4.88459795 -0.8523957 0 0 Z " fill="#000000" transform="translate(437,38)"/>
</svg>
