<?xml version="1.0" encoding="UTF-8"?>
<svg version="1.1" xmlns="http://www.w3.org/2000/svg" width="512" height="512">
<path d="M0 0 C0.78080933 0.00215515 1.56161865 0.0043103 2.36608887 0.00653076 C37.79177422 0.16248383 71.12794837 8.54830975 102.375 25.3125 C103.02774902 25.65361816 103.68049805 25.99473633 104.35302734 26.34619141 C115.16820594 32.00827101 124.84425715 38.69840103 134.375 46.3125 C134.9431543 46.76351074 135.51130859 47.21452148 136.09667969 47.67919922 C149.60774718 58.49206243 161.83482022 70.68174008 172.11621094 84.61376953 C173.34172711 86.26759838 174.59396464 87.89784344 175.8515625 89.52734375 C209.22845652 133.57558169 220.9584206 191.16272529 214.375 245.3125 C208.65928688 284.40005494 192.82915713 321.96542714 167.375 352.3125 C166.82972656 353.0034375 166.28445313 353.694375 165.72265625 354.40625 C160.84681881 360.46072499 160.84681881 360.46072499 156.375 361.3125 C148.55047384 361.71721687 144.57471655 357.75718658 138.94042969 352.70849609 C136.71198207 350.72124353 134.44022306 348.78610953 132.17016602 346.84667969 C130.96829007 345.81953588 129.76826929 344.79021754 128.57006836 343.75878906 C125.0230946 340.70618903 121.44268558 337.70381912 117.8125 334.75 C113.62273844 331.33958397 109.45394933 327.90634273 105.3125 324.4375 C104.75167725 323.9727124 104.19085449 323.5079248 103.61303711 323.02905273 C97.69642891 318.05254302 97.69642891 318.05254302 96.96875 314.11328125 C96.69301504 306.79481575 98.71826858 303.71282127 103.375 298.3125 C116.28525289 282.15778565 124.93103478 263.48282617 129.375 243.3125 C129.60574219 242.27867187 129.83648437 241.24484375 130.07421875 240.1796875 C133.69946344 222.1305969 133.20838574 203.16717276 128.75 185.3125 C127.1355795 178.75546903 125.58148932 172.38708973 129.125 166.3125 C133.1628978 162.72325752 135.86191493 161.86556162 141.41796875 162.08203125 C144.61136961 162.45810041 146.0099049 163.07879907 148.375 165.3125 C155.5175909 176.78312925 156.94889316 195.08466143 157.375 208.3125 C157.41496094 209.35664063 157.45492188 210.40078125 157.49609375 211.4765625 C158.15318361 245.10410245 148.47252795 278.62556152 128.74609375 305.921875 C128.29363281 306.71078125 127.84117187 307.4996875 127.375 308.3125 C128.6187917 312.0438751 130.11706199 312.95466904 133.1875 315.375 C134.17234375 316.16003906 135.1571875 316.94507813 136.171875 317.75390625 C136.95401367 318.37483154 136.95401367 318.37483154 137.75195312 319.00830078 C140.51818963 321.23110996 143.22419783 323.52562722 145.9375 325.8125 C149.4499956 328.87581659 149.4499956 328.87581659 153.375 331.3125 C153.73078125 330.54099609 153.73078125 330.54099609 154.09375 329.75390625 C155.45848184 327.15342636 157.00841232 324.70738041 158.59814453 322.23974609 C179.43658429 289.76684284 190.84556628 254.68045495 190.75 215.9375 C190.74945618 215.10478577 190.74891235 214.27207153 190.74835205 213.41412354 C190.61010964 167.20244945 173.43042633 124.19606932 143.375 89.3125 C142.90497559 88.76658203 142.43495117 88.22066406 141.95068359 87.65820312 C136.80000753 81.72791475 131.4735493 76.25979254 125.375 71.3125 C124.36953125 70.48105469 123.3640625 69.64960938 122.328125 68.79296875 C113.79947732 61.84223809 104.87158448 55.85634144 95.375 50.3125 C94.72756836 49.92852051 94.08013672 49.54454102 93.41308594 49.14892578 C70.38246152 35.64046799 44.00375422 28.15761295 17.515625 25.671875 C14.375 25.3125 14.375 25.3125 12.375 24.3125 C12.375 35.8625 12.375 47.4125 12.375 59.3125 C16.335 59.6425 20.295 59.9725 24.375 60.3125 C52.88590595 64.79140921 81.06756202 76.45784188 102.375 96.3125 C104.22610583 100.01471166 103.83954795 104.27156917 103.375 108.3125 C101.33335443 111.81246383 99.28410064 114.11805258 95.375 115.3125 C87.81700942 116.19536571 84.29222661 113.79491269 78.375 109.3125 C70.06056372 103.32649585 61.7442074 98.43829649 52.375 94.3125 C51.29089844 93.83296875 50.20679688 93.3534375 49.08984375 92.859375 C23.11581521 82.17365322 -7.65803419 80.7523071 -34.625 88.3125 C-35.2948291 88.49441895 -35.9646582 88.67633789 -36.65478516 88.86376953 C-55.25564934 94.05309065 -71.89284947 104.00622674 -86.625 116.3125 C-87.26308594 116.82683594 -87.90117187 117.34117187 -88.55859375 117.87109375 C-113.11043789 138.0484445 -127.20496945 170.57977703 -131.01953125 201.51171875 C-131.30142772 204.44720068 -131.49371045 207.36669067 -131.625 210.3125 C-131.66625 211.15554688 -131.7075 211.99859375 -131.75 212.8671875 C-132.27283531 234.36878982 -127.06917815 255.10591597 -117.625 274.3125 C-117.068125 275.45460938 -116.51125 276.59671875 -115.9375 277.7734375 C-111.56442237 286.29688974 -106.19790445 294.00750643 -99.94140625 301.265625 C-96.54338688 305.38560315 -95.83973166 308.77943471 -96.16015625 313.96875 C-97.49964368 320.72246815 -104.34234183 324.6506182 -109.3984375 328.69140625 C-113.05931172 331.63403659 -116.58869644 334.72226105 -120.125 337.8125 C-146.78092998 361.03903173 -146.78092998 361.03903173 -152.875 361.625 C-158.29638811 361.17321766 -161.30324875 358.67049282 -165.046875 354.82421875 C-201.23030838 310.93055712 -219.8468993 253.87133738 -214.90673828 197.02148438 C-210.51031015 154.74872308 -195.70456769 114.36302827 -168.625 81.3125 C-168.20283203 80.78881836 -167.78066406 80.26513672 -167.34570312 79.72558594 C-157.07930954 67.0122399 -145.70201581 55.15852361 -132.625 45.3125 C-132.03444824 44.86729004 -131.44389648 44.42208008 -130.83544922 43.96337891 C-113.78073232 31.22511221 -95.57070944 20.79053769 -75.625 13.3125 C-74.89780762 13.03712402 -74.17061523 12.76174805 -73.42138672 12.47802734 C-64.46298146 9.14200168 -55.39116945 6.63923582 -46.0625 4.5625 C-44.73557129 4.26436401 -44.73557129 4.26436401 -43.38183594 3.96020508 C-28.99835095 0.92395187 -14.66211189 -0.07364531 0 0 Z M-125.625 71.3125 C-120.80632753 77.12141746 -115.61243592 82.44315552 -110.25 87.75 C-109.41855469 88.57693359 -108.58710938 89.40386719 -107.73046875 90.25585938 C-105.6975896 92.27705531 -103.66240037 94.29586335 -101.625 96.3125 C-96.8457795 93.1712558 -92.14689602 90.00599709 -87.625 86.5 C-64.96671315 70.04688714 -38.76530047 63.83588341 -11.625 59.3125 C-11.625 47.7625 -11.625 36.2125 -11.625 24.3125 C-53.07201336 24.3125 -94.70765125 45.24764993 -125.625 71.3125 Z M-143.625 89.3125 C-171.91613872 121.44623821 -187.35691937 160.8274518 -190.625 203.3125 C-179.075 203.3125 -167.525 203.3125 -155.625 203.3125 C-155.068125 199.868125 -154.51125 196.42375 -153.9375 192.875 C-149.5568695 167.12855003 -140.54946808 143.47000706 -124.921875 122.43359375 C-122.72566616 119.44928956 -120.66961531 116.40174056 -118.625 113.3125 C-122.02149088 109.89136664 -125.42119518 106.47347238 -128.82397461 103.05859375 C-129.98210059 101.89542608 -131.13932923 100.73136426 -132.2956543 99.56640625 C-133.95388785 97.8960999 -135.61527812 96.2289921 -137.27734375 94.5625 C-137.79715317 94.0375293 -138.31696259 93.51255859 -138.8525238 92.97167969 C-140.09117967 91.73282908 -141.35553278 90.51975811 -142.625 89.3125 C-142.955 89.3125 -143.285 89.3125 -143.625 89.3125 Z M-190.625 227.3125 C-190.00716183 236.5800726 -189.44020284 244.99566221 -187.5 253.9375 C-187.28045654 254.9581958 -187.06091309 255.9788916 -186.8347168 257.03051758 C-180.72688406 284.3161142 -168.94985997 308.71773806 -152.625 331.3125 C-148.58694134 329.94983356 -146.08131882 328.1715849 -143 325.25 C-138.43711639 321.00274443 -133.68528061 317.09880656 -128.77734375 313.2578125 C-126.38689687 311.41781834 -126.38689687 311.41781834 -125.625 308.3125 C-126.86087335 306.14137114 -128.13558052 304.16470873 -129.5625 302.125 C-144.89425527 279.16337122 -151.75327806 254.4145536 -155.625 227.3125 C-167.175 227.3125 -178.725 227.3125 -190.625 227.3125 Z " fill="#000000" transform="translate(255.625,65.6875)"/>
<path d="M0 0 C3.8113509 2.09791464 6.38549146 4.96467061 8 9 C8.59874166 15.28529807 6.45467199 19.54564435 2.59472656 24.32739258 C1.9859668 25.04435303 1.37720703 25.76131348 0.75 26.5 C-0.53219965 28.0760508 -1.8134268 29.65289321 -3.09375 31.23046875 C-3.74601563 32.02243652 -4.39828125 32.8144043 -5.0703125 33.63037109 C-8.05150292 37.29123069 -10.89954314 41.04957153 -13.75 44.8125 C-14.82368801 46.22045697 -15.89789582 47.62801773 -16.97265625 49.03515625 C-17.48328613 49.70434082 -17.99391602 50.37352539 -18.52001953 51.06298828 C-22.33253539 56.05284325 -26.1685218 61.02470368 -30 66 C-31.24766396 67.62151985 -32.49508752 69.24322434 -33.74243164 70.86499023 C-34.58136716 71.95572042 -35.42039724 73.04637788 -36.25952148 74.13696289 C-38.29429649 76.78157716 -40.32781303 79.42713386 -42.359375 82.07421875 C-47.74860027 89.0925399 -53.17343943 96.08219836 -58.61401367 103.06079102 C-62.08769677 107.52239804 -65.53300888 112.00381572 -68.953125 116.5065918 C-75.33286289 124.90419278 -81.90872049 133.11840599 -88.59423828 141.27392578 C-90.50542437 143.6205888 -92.377107 145.99772393 -94.25 148.375 C-103.36795539 159.78690188 -112.21253023 170.21105027 -127.23828125 172.7421875 C-139.3463072 173.87249827 -150.42719816 171.11720587 -159.875 163.3125 C-167.66563206 155.81878858 -172.14797972 146.75984638 -172.38061523 135.8984375 C-172.34822339 123.50503432 -169.80034444 114.17628149 -161 105 C-157.83525877 102.08940625 -154.46469137 99.54309216 -151 97 C-150.03392822 96.2881958 -150.03392822 96.2881958 -149.04833984 95.56201172 C-139.13992549 88.27888432 -129.07664474 81.2316294 -118.91503906 74.30761719 C-117.0829412 73.05663349 -115.25534587 71.79942059 -113.4296875 70.5390625 C-92.68778289 56.22040321 -71.76840315 42.15856402 -50.875 28.0625 C-49.97155853 27.45279358 -49.06811707 26.84308716 -48.13729858 26.21490479 C-42.09521716 22.13777869 -36.04906829 18.06675153 -30 14 C-28.71615417 13.13577423 -28.71615417 13.13577423 -27.40637207 12.25408936 C-24.92106608 10.58218731 -22.43354469 8.91363677 -19.9453125 7.24609375 C-19.2007077 6.74465347 -18.45610291 6.2432132 -17.68893433 5.72657776 C-16.65205978 5.033256 -16.65205978 5.033256 -15.59423828 4.32592773 C-14.99394806 3.92317123 -14.39365784 3.52041473 -13.775177 3.10545349 C-9.27111243 0.30064366 -5.36811414 -1.02200635 0 0 Z M-62 65 C-84.0533616 79.92195843 -84.0533616 79.92195843 -106 95 C-106.77214844 95.53399414 -107.54429687 96.06798828 -108.33984375 96.61816406 C-117.25620032 102.7907588 -126.141598 109.00771781 -134.875 115.4375 C-135.51050781 115.89697021 -136.14601563 116.35644043 -136.80078125 116.82983398 C-142.09152611 120.77300337 -147.03391229 125.04806534 -149.125 131.4375 C-148.90841345 137.61021666 -146.42013247 141.44776219 -142.3125 145.9375 C-138.28713609 148.44385866 -134.75363471 149.67691758 -130 149 C-124.47864967 146.41245726 -121.05931352 143.31599053 -117.25 138.625 C-116.73614746 138.00850586 -116.22229492 137.39201172 -115.69287109 136.75683594 C-110.84354921 130.90312857 -106.13930115 124.93335123 -101.48779297 118.921875 C-99.89283863 116.86157297 -98.29260647 114.80545125 -96.69140625 112.75 C-94.33272465 109.72153244 -91.97597677 106.69157848 -89.62109375 103.66015625 C-86.59579896 99.76581545 -83.56702787 95.87419654 -80.53686523 91.98364258 C-78.78539564 89.73298381 -77.03710242 87.47988547 -75.2890625 85.2265625 C-73.17343816 82.50116243 -71.04345851 79.78825015 -68.8984375 77.0859375 C-68.42696289 76.48692627 -67.95548828 75.88791504 -67.46972656 75.27075195 C-66.21610688 73.67823617 -64.95596085 72.0908639 -63.6953125 70.50390625 C-61.71967591 68.0899469 -61.71967591 68.0899469 -62 65 Z " fill="#000000" transform="translate(388,179)"/>
<path d="M0 0 C0.80958538 -0.00467997 1.61917076 -0.00935994 2.45328903 -0.01418173 C5.15164583 -0.02609686 7.84949147 -0.01668825 10.54785156 -0.00723267 C12.48824356 -0.01129991 14.42863325 -0.01664266 16.36901855 -0.02316284 C21.62929477 -0.03682396 26.88939421 -0.03154271 32.14967346 -0.02202559 C37.65838085 -0.01442279 43.16707325 -0.02147633 48.67578125 -0.02618408 C57.92613437 -0.03163982 67.17641561 -0.02445477 76.42675781 -0.01016235 C87.11671586 0.00616378 97.80650225 0.00087514 108.49645615 -0.01564157 C117.67966047 -0.02926159 126.86281316 -0.03117356 136.04602432 -0.02332556 C141.52855492 -0.0186519 147.01100487 -0.0180158 152.49353027 -0.02793503 C157.64819869 -0.03660988 162.80264607 -0.03057317 167.95729065 -0.01325226 C169.84749485 -0.00929021 171.73771769 -0.01041663 173.62791443 -0.01704025 C176.21117727 -0.02525696 178.79373501 -0.01493281 181.37695312 0 C182.12219616 -0.00669217 182.86743919 -0.01338433 183.63526535 -0.02027929 C188.77224634 0.03718669 192.22145951 1.00737564 196.68847656 3.38095093 C199.70092148 7.6566792 200.33403847 11.21645564 199.68847656 16.38095093 C197.66181418 20.08485114 196.2080314 22.03458103 192.68847656 24.38095093 C189.96412265 24.57888024 187.34168379 24.65917443 184.61672974 24.64837646 C183.78464961 24.65290758 182.95256948 24.65743869 182.09527481 24.66210711 C179.29702186 24.67480397 176.49896222 24.67312735 173.70068359 24.67147827 C171.69852446 24.67746022 169.69636763 24.68426499 167.69421387 24.6918335 C162.24793621 24.7095346 156.80172136 24.7141906 151.35541773 24.71546507 C146.81255167 24.71736178 142.26970031 24.72471668 137.7268399 24.73180926 C127.01075681 24.74810643 116.29470734 24.752977 105.57861328 24.7515564 C94.51604363 24.7503546 83.45366898 24.77146098 72.39114869 24.80304372 C62.90063339 24.82917525 53.4101819 24.839925 43.91963089 24.83864558 C38.24815071 24.83813503 32.57684374 24.84386963 26.90539932 24.86500168 C21.57183346 24.88433144 16.23860696 24.88454457 10.9050293 24.86996841 C8.94625225 24.86787267 6.98745425 24.87262654 5.02871323 24.88468933 C2.35680391 24.90007973 -0.31392619 24.89087513 -2.98580933 24.87542725 C-3.76295221 24.88571437 -4.5400951 24.8960015 -5.34078777 24.90660036 C-10.29421556 24.84321024 -12.82448411 23.90300546 -16.31152344 20.38095093 C-18.83622621 16.89445662 -18.67379273 13.58327468 -18.31152344 9.38095093 C-16.95901203 5.24385722 -16.08280901 3.79077797 -12.2098999 1.73288536 C-8.18532728 0.13045829 -4.29046971 -0.03852774 0 0 Z " fill="#000000" transform="translate(165.3115234375,421.6190490722656)"/>
<path d="M0 0 C0.87037399 -0.00686325 1.74074799 -0.0137265 2.63749695 -0.02079773 C5.5137871 -0.03909466 8.38953329 -0.03522406 11.26586914 -0.02954102 C13.26599811 -0.0341015 15.2661255 -0.03940667 17.26625061 -0.04542542 C21.45848963 -0.05436226 25.65053822 -0.05192692 29.84277344 -0.04199219 C35.21425977 -0.03050314 40.58508866 -0.05071025 45.95648861 -0.07990932 C50.08720575 -0.09825866 54.21776498 -0.09798136 58.34851265 -0.0922718 C60.32885218 -0.09211843 62.3092023 -0.09817625 64.2895031 -0.11056328 C67.05930651 -0.12544707 69.82789089 -0.11481546 72.59765625 -0.09765625 C73.41496216 -0.10732422 74.23226807 -0.11699219 75.07434082 -0.12695312 C79.0286865 -0.07567505 80.92606171 0.12555814 84.34693909 2.30332947 C87.53035136 5.61956157 88.19569847 8.88035432 88.36352539 13.40405273 C87.61747019 17.07098445 86.1196369 19.69519819 83.36352539 22.27905273 C79.11348841 24.66969853 75.13996575 24.55827207 70.40722656 24.56518555 C69.59712631 24.57015045 68.78702606 24.57511536 67.95237732 24.58023071 C65.27040763 24.59484419 62.58849711 24.6016532 59.90649414 24.60717773 C58.04185484 24.61293013 56.17721556 24.61868785 54.31257629 24.62445068 C50.40108973 24.63495854 46.4896237 24.64080253 42.578125 24.64428711 C37.57116319 24.64976952 32.56447363 24.67379305 27.55759716 24.70225906 C23.70481071 24.72090276 19.8520896 24.72609198 15.99926186 24.72762299 C14.15371526 24.73064644 12.30816973 24.73866458 10.46266747 24.75180817 C7.8775716 24.76890393 5.29313761 24.76697983 2.70800781 24.76049805 C1.94883057 24.76971283 1.18965332 24.77892761 0.4074707 24.78842163 C-5.18745142 24.74457906 -9.37513302 23.58741703 -13.44897461 19.65405273 C-15.1280858 16.4725789 -15.51448484 14.00275093 -15.63647461 10.40405273 C-12.77800332 1.37730129 -9.02724528 -0.04959842 0 0 Z " fill="#000000" transform="translate(219.636474609375,378.595947265625)"/>
</svg>
